<?xml version="1.0" standalone="no"?>
<!DOCTYPE svg PUBLIC "-//W3C//DTD SVG 1.1//EN" "http://www.w3.org/Graphics/SVG/1.1/DTD/svg11.dtd" >
<svg xmlns="http://www.w3.org/2000/svg" xmlns:xlink="http://www.w3.org/1999/xlink" version="1.1">
<metadata>
Created by FontForge 20161116 at Sat May 15 01:14:59 2004
 By Jimmy Wärting
Copyright (c) 1990-1997 ParaGraph. All Rights Reserved. ITC New Baskerville is a registered trade mark of International Typeface Corporation.
</metadata>
<defs>
<font id="NewBaskervilleC-Bold" horiz-adv-x="533" >
  <font-face 
    font-family="NewBaskervilleC"
    font-weight="700"
    font-stretch="normal"
    units-per-em="1000"
    panose-1="0 0 8 0 0 0 0 0 0 0"
    ascent="722"
    descent="-278"
    x-height="436"
    cap-height="668"
    bbox="-488 -278 1192 902"
    underline-thickness="50"
    underline-position="-100"
    stemh="40"
    stemv="134"
    unicode-range="U+0020-2122"
  />
<missing-glyph horiz-adv-x="233" 
 />
    <glyph glyph-name=".notdef" horiz-adv-x="233" 
 />
    <glyph glyph-name="space" unicode=" " horiz-adv-x="233" 
 />
    <glyph glyph-name="space" unicode="&#xa0;" horiz-adv-x="233" 
 />
    <glyph glyph-name="exclam" unicode="!" horiz-adv-x="314" 
d="M177 214h-40c1 58 -4 144 -22 215l-26 100c-2 7 -4 14 -5 21c-3 12 -5 28 -5 39c0 63 37 98 78 98s78 -35 78 -98c0 -11 -2 -27 -5 -39c-1 -7 -3 -14 -5 -21l-26 -100c-18 -71 -23 -157 -22 -215zM73 71c0 47 37 84 84 84s84 -37 84 -84s-37 -84 -84 -84s-84 37 -84 84z
" />
    <glyph glyph-name="quotedbl" unicode="&#x22;" horiz-adv-x="452" 
d="M152 398h-58l-34 268h126zM358 398h-58l-34 268h126z" />
    <glyph glyph-name="numbersign" unicode="#" 
d="M313 59h-74l41 176h-100l-41 -176h-73l41 176h-107l10 44h107l25 111h-106l10 44h107l40 177h74l-41 -177h100l41 177h73l-41 -177h107l-10 -44h-107l-26 -111h107l-10 -44h-107zM290 279l26 111h-100l-26 -111h100z" />
    <glyph glyph-name="dollar" unicode="$" 
d="M290 760v-92c110 -1 185 -58 185 -118c0 -29 -23 -54 -53 -54c-33 0 -46 25 -56 58c-11 35 -23 73 -76 77v-215c87 -35 199 -104 199 -230c0 -125 -95 -192 -199 -199v-128h-47v128c-149 6 -199 73 -199 121c0 30 23 56 53 56c43 0 54 -35 62 -62c8 -25 23 -76 84 -74
v249l-22 12c-87 48 -163 87 -163 197c0 91 66 175 185 182v92h47zM243 439v192c-57 -5 -87 -52 -87 -92c0 -51 43 -85 87 -100zM290 254v-226c63 8 95 61 95 104c0 64 -54 104 -95 122z" />
    <glyph glyph-name="percent" unicode="%" horiz-adv-x="807" 
d="M665 722l-470 -779h-54l408 675c-35 -18 -71 -26 -99 -26c-24 0 -45 5 -77 14c8 -28 9 -46 9 -60c0 -103 -69 -242 -186 -242c-75 0 -160 56 -160 164c0 101 87 229 201 229c40 0 68 -17 100 -36c40 -24 66 -39 112 -39c89 0 154 70 179 100h37zM343 547
c0 88 -35 106 -59 106c-65 0 -128 -119 -128 -227c0 -53 31 -77 60 -77c66 0 127 116 127 198zM771 218c0 -110 -67 -249 -190 -249c-77 0 -156 50 -156 157c0 112 86 233 205 233c73 0 141 -41 141 -141zM545 92c0 -62 31 -78 56 -78c66 0 129 104 129 202
c0 72 -30 98 -56 98c-73 0 -129 -119 -129 -222z" />
    <glyph glyph-name="ampersand" unicode="&#x26;" horiz-adv-x="811" 
d="M343 380l127 -155l35 51c22 32 42 69 79 101c18 16 52 40 97 40c51 0 91 -36 91 -85c0 -42 -35 -79 -77 -79c-21 0 -45 12 -56 32c-9 16 -6 27 -9 37c-1 5 -5 11 -15 11c-20 0 -35 -24 -45 -39l-66 -102l13 -14c34 -36 90 -98 148 -98c30 0 60 18 88 49l31 -29
c-40 -55 -104 -113 -192 -113c-42 0 -104 11 -155 63l-33 34c-34 -33 -114 -97 -218 -97c-97 0 -159 63 -159 137c0 92 75 160 170 213c-54 74 -60 126 -60 159c0 111 72 183 175 183c93 0 148 -59 148 -135c0 -85 -77 -141 -117 -164zM221 301l-4 -4
c-24 -24 -57 -58 -57 -103c0 -65 53 -128 112 -128c42 0 78 27 99 50zM303 433l14 -20c42 42 55 95 55 129c0 63 -31 93 -67 93c-29 0 -63 -25 -63 -73c0 -46 28 -82 61 -129z" />
    <glyph glyph-name="quotesingle" unicode="'" horiz-adv-x="246" 
d="M157 399h-68l-42 267h152z" />
    <glyph glyph-name="parenleft" unicode="(" horiz-adv-x="335" 
d="M259 703l24 -22c-102 -132 -130 -271 -130 -421c0 -193 44 -334 139 -457l-23 -20c-188 183 -226 348 -226 466c0 211 127 369 216 454z" />
    <glyph glyph-name="parenright" unicode=")" horiz-adv-x="335" 
d="M76 -217l-24 22c71 93 130 217 130 421c0 221 -62 357 -139 457l22 20c189 -182 227 -349 227 -466c0 -194 -108 -347 -216 -454z" />
    <glyph glyph-name="asterisk" unicode="*" horiz-adv-x="532" 
d="M318 483c-12 -3 -28 -6 -28 -16c0 -46 169 -2 169 -81c0 -18 -14 -51 -47 -51c-42 0 -70 59 -91 82c-8 9 -28 28 -39 28c-6 0 -7 -4 -7 -8v-5c2 -36 12 -55 22 -78c9 -19 16 -33 16 -50c0 -28 -17 -52 -47 -52c-26 0 -47 18 -47 52c0 19 5 19 24 68c6 15 13 47 13 65
c0 8 -2 8 -6 8c-30 0 -49 -45 -78 -79c-14 -16 -34 -31 -53 -31c-25 0 -46 24 -46 48c0 16 12 55 98 58c43 2 71 16 71 26c0 13 -61 25 -91 28s-79 8 -79 53c0 24 24 48 50 48c31 0 48 -28 68 -58c15 -23 38 -52 60 -52c4 0 6 2 7 6v6c-2 23 -4 37 -21 73
c-7 14 -18 36 -18 57c0 32 26 51 48 51c28 0 47 -26 47 -51c0 -14 -5 -30 -9 -40c-32 -77 -27 -46 -30 -90v-5s2 -6 4 -7c1 -1 3 0 4 0c34 7 28 19 79 80c12 14 28 30 49 30c26 0 50 -24 50 -48c0 -18 -9 -41 -51 -51c-8 -2 -25 -5 -64 -9c-17 -2 -17 -2 -27 -5z" />
    <glyph glyph-name="plus" unicode="+" horiz-adv-x="544" 
d="M30 399h202v200h79v-200h203v-76h-203v-201h-79v201h-202v76z" />
    <glyph glyph-name="comma" unicode="," horiz-adv-x="291" 
d="M69 -181l-16 28l16 8c37 19 103 69 108 145c-16 -10 -28 -13 -41 -13c-47 0 -80 33 -80 79c0 48 36 84 85 84c46 0 97 -36 97 -116c0 -66 -32 -152 -143 -203z" />
    <glyph glyph-name="hyphenminus" horiz-adv-x="240" 
d="M230 185h-220v108h220v-108z" />
    <glyph glyph-name="period" unicode="." horiz-adv-x="288" 
d="M60 71c0 47 37 84 84 84s84 -37 84 -84s-37 -84 -84 -84s-84 37 -84 84z" />
    <glyph glyph-name="slash" unicode="/" horiz-adv-x="608" 
d="M608 687l-544 -887h-64l544 887h64z" />
    <glyph glyph-name="zero" unicode="0" 
d="M266 679c99 0 226 -105 226 -346s-127 -346 -226 -346s-226 105 -226 346s127 346 226 346zM266 639c-77 0 -79 -174 -79 -306s2 -306 79 -306s79 174 79 306s-2 306 -79 306z" />
    <glyph glyph-name="one" unicode="1" horiz-adv-x="534" 
d="M433 36v-38c-18 0 -37 1 -55 1c-26 1 -53 2 -79 2h-62c-26 0 -53 -1 -79 -2c-18 0 -37 -1 -55 -1v38l25 2c50 4 71 12 71 93v374c0 83 -19 87 -74 87h-24v39c107 10 173 38 208 56h28v-556c0 -81 21 -89 71 -93z" />
    <glyph glyph-name="two" unicode="2" 
d="M450 -59h-36l2 37c1 19 -8 23 -47 23l-325 -3c132 263 292 305 292 503c0 102 -55 132 -93 132c-40 0 -89 -25 -89 -84c0 -42 22 -75 54 -75c15 0 22 4 29 8c8 4 12 4 14 4c4 0 9 -4 9 -22c0 -29 -35 -72 -91 -72c-68 0 -111 57 -111 120c0 75 61 167 210 167
c153 0 220 -91 220 -187c0 -131 -106 -191 -206 -269c-67 -52 -88 -74 -107 -102l312 5z" />
    <glyph glyph-name="three" unicode="3" 
d="M282 373l23 1c130 6 184 -81 184 -164c0 -139 -145 -223 -272 -223c-33 0 -72 7 -104 20c-60 24 -70 64 -70 85c0 29 19 56 56 56c44 0 58 -33 68 -59c8 -22 23 -59 64 -59c27 0 106 6 106 167c0 103 -34 141 -68 141c-22 0 -39 -14 -53 -36c-9 -14 -19 -34 -42 -34
c-17 0 -35 12 -35 31c0 23 28 36 54 54c54 37 122 77 122 177c0 72 -39 100 -74 100c-39 0 -83 -24 -83 -67c0 -30 17 -47 35 -47c24 0 25 11 36 11c4 0 9 -7 9 -25c0 -35 -42 -63 -83 -63c-48 0 -85 34 -85 84c0 69 73 156 218 156c98 0 166 -55 166 -130
c0 -57 -35 -93 -65 -116c-10 -7 -50 -37 -107 -60z" />
    <glyph glyph-name="four" unicode="4" 
d="M273 194h-253v57l317 417h72v-417h100v-57h-100v-73c0 -63 21 -92 96 -85v-38l-165 3l-163 -3v38c75 -7 96 22 96 85v73zM75 251h198v259z" />
    <glyph glyph-name="five" unicode="5" horiz-adv-x="534" 
d="M427 693h32c-29 -159 -182 -168 -229 -168c-17 0 -38 1 -73 9l-5 -161c53 47 113 54 146 54c85 0 194 -57 194 -188c0 -127 -102 -252 -274 -252c-91 0 -176 32 -176 99c0 40 32 60 59 60c39 0 53 -32 66 -57c15 -30 31 -59 66 -59c25 0 107 9 107 176
c0 84 -18 155 -104 155c-85 0 -74 -60 -75 -87c-1 -17 -12 -29 -29 -29s-34 13 -33 29l14 410h33c33 -24 76 -43 150 -43c57 0 99 11 131 52z" />
    <glyph glyph-name="six" unicode="6" 
d="M189 390c46 38 97 41 119 41c88 0 184 -73 184 -200c0 -135 -96 -244 -226 -244c-98 0 -225 69 -225 322c0 306 174 370 276 370c103 0 143 -54 143 -92c0 -32 -25 -57 -56 -57c-39 0 -53 31 -64 54c-13 25 -26 50 -58 50c-28 0 -98 -21 -93 -244zM186 324
c-2 -40 -2 -81 -2 -121c0 -84 7 -176 78 -176c80 0 84 93 84 168c0 80 4 180 -78 180c-35 0 -65 -23 -82 -51z" />
    <glyph glyph-name="seven" unicode="7" 
d="M491 668v-37c-54 -106 -95 -210 -130 -337c-19 -69 -27 -110 -34 -158c-6 -40 -8 -63 -15 -86c-13 -39 -37 -63 -79 -63c-45 0 -95 32 -57 137c21 58 50 112 69 146l158 275h-199c-90 0 -109 -50 -119 -83l-6 -20h-35l57 291h37l-2 -12c-9 -52 12 -53 42 -53h313z" />
    <glyph glyph-name="eight" unicode="8" 
d="M174 320c-38 22 -114 78 -114 177c0 98 79 182 209 182c143 0 207 -83 207 -152c0 -72 -61 -119 -108 -141c44 -23 129 -82 129 -188c0 -108 -80 -211 -230 -211c-134 0 -231 70 -231 174c0 80 70 135 138 159zM303 418l29 -12c30 30 45 68 45 110c0 70 -43 119 -115 119
c-68 0 -101 -44 -101 -86c0 -71 88 -109 142 -131zM232 292l-20 8c-28 -24 -69 -71 -69 -137c0 -70 42 -132 124 -132c76 0 129 47 129 107c0 89 -101 129 -164 154z" />
    <glyph glyph-name="nine" unicode="9" 
d="M343 280c-44 -38 -96 -41 -118 -41c-89 0 -184 73 -184 200c0 144 102 240 226 240c97 0 225 -65 225 -323c0 -23 -2 -138 -51 -231c-54 -104 -150 -138 -225 -138c-103 0 -143 54 -143 93c0 29 22 57 56 57c30 0 46 -20 63 -53c11 -22 23 -52 59 -52c83 0 93 148 92 248
zM347 346l2 118c2 90 -7 175 -78 175c-81 0 -84 -82 -84 -164c0 -74 -4 -180 78 -180c26 0 63 17 82 51z" />
    <glyph glyph-name="colon" unicode=":" horiz-adv-x="288" 
d="M60 358c0 47 37 84 84 84s84 -37 84 -84s-37 -84 -84 -84s-84 37 -84 84zM60 71c0 47 37 84 84 84s84 -37 84 -84s-37 -84 -84 -84s-84 37 -84 84z" />
    <glyph glyph-name="semicolon" unicode=";" horiz-adv-x="298" 
d="M70 358c0 47 37 84 84 84s84 -37 84 -84s-37 -84 -84 -84s-84 37 -84 84zM76 -181l-16 28l16 8c37 19 103 69 108 145c-16 -10 -28 -13 -41 -13c-47 0 -80 33 -80 79c0 48 36 84 85 84c46 0 97 -36 97 -116c0 -66 -32 -152 -143 -203z" />
    <glyph glyph-name="less" unicode="&#x3c;" horiz-adv-x="545" 
d="M124 235l386 -155v-80l-475 190v90l475 190v-80z" />
    <glyph glyph-name="equal" unicode="=" horiz-adv-x="544" 
d="M30 474h484v-74h-484v74zM30 322h484v-74h-484v74z" />
    <glyph glyph-name="greater" unicode="&#x3e;" horiz-adv-x="545" 
d="M421 235l-386 155v80l475 -190v-90l-475 -190v80z" />
    <glyph glyph-name="question" unicode="?" horiz-adv-x="407" 
d="M110 214v203l66 -3c116 -5 130 52 130 81c0 40 -27 97 -93 97c-13 0 -24 -2 -34 -4c-30 -6 -45 -11 -67 -11c-47 0 -71 27 -71 52c0 21 13 58 80 58c124 0 246 -112 246 -238c0 -93 -67 -156 -181 -153l-34 1v-83h-42zM53 71c0 47 37 84 84 84s84 -37 84 -84
s-37 -84 -84 -84s-84 37 -84 84z" />
    <glyph glyph-name="at" unicode="@" horiz-adv-x="939" 
d="M806 40l17 -24c-126 -88 -241 -107 -326 -107c-254 0 -452 146 -452 386c0 206 162 455 468 455c239 0 381 -149 381 -343c0 -139 -86 -307 -242 -307c-59 0 -106 29 -113 93c-27 -48 -76 -93 -135 -93c-74 0 -147 67 -147 170c0 126 113 267 246 267
c50 0 94 -25 100 -80l21 70h101l-78 -271c-6 -20 -18 -57 -18 -76c0 -17 8 -47 45 -47c86 0 190 116 190 277c0 174 -131 307 -349 307c-229 0 -395 -205 -395 -431c0 -218 158 -349 371 -349c67 0 195 13 315 103zM580 426c0 54 -29 80 -59 80c-91 0 -160 -208 -160 -296
c0 -62 38 -74 60 -74c96 0 159 199 159 290z" />
    <glyph glyph-name="A" unicode="A" horiz-adv-x="675" 
d="M174 205l-10 -24c-12 -30 -26 -56 -26 -85c0 -45 26 -50 60 -56l24 -4v-38l-141 3c-39 1 -80 -1 -103 -3v38c81 15 101 70 131 142l209 501h49l217 -541c21 -53 37 -99 113 -102v-38c-32 1 -85 3 -118 3h-64h-56c-30 0 -76 -2 -104 -3v38l26 3c22 3 58 4 58 39
c0 17 -3 40 -28 97l-13 30h-224zM193 253h187l-91 237z" />
    <glyph glyph-name="B" unicode="B" horiz-adv-x="697" 
d="M132 131v404c0 57 1 85 -82 93l-22 2v38c105 -1 74 -2 146 -3c59 -1 119 3 178 3c75 0 168 -5 224 -63c23 -24 40 -57 40 -91c0 -70 -57 -139 -177 -156c96 -5 220 -57 220 -177c0 -41 -17 -82 -45 -111c-89 -94 -281 -70 -421 -69c-54 0 -127 -2 -165 -3v38l22 2
c83 8 82 36 82 93zM288 373h32c35 0 128 2 128 126c0 79 -46 123 -117 123h-20c-24 0 -23 -10 -23 -28v-221zM288 327v-196c0 -14 2 -83 83 -83c24 0 112 6 112 132c0 38 -3 147 -150 147h-45z" />
    <glyph glyph-name="C" unicode="C" horiz-adv-x="717" 
d="M675 232l-2 -109l2 -119h-44l-20 58c-70 -60 -148 -75 -214 -75c-205 0 -352 133 -352 341c0 205 156 351 359 351c51 0 119 -8 192 -63l15 58h44l9 -213h-45c-8 34 -21 63 -40 89c-43 61 -98 80 -152 80c-109 0 -204 -97 -204 -305c0 -242 138 -284 218 -284
c120 0 177 104 190 191h44z" />
    <glyph glyph-name="D" unicode="D" horiz-adv-x="776" 
d="M28 630v38c97 -1 128 -3 169 -3c43 0 85 3 128 3c138 0 271 -26 353 -154c37 -57 53 -126 53 -196c0 -191 -119 -320 -354 -320c-182 0 -71 6 -207 3c-51 -1 -60 -2 -142 -3v38l22 2c83 8 82 36 82 93v404c0 57 1 85 -82 93zM288 602v-424c0 -49 1 -130 87 -130
c170 0 178 175 178 276c0 56 3 298 -202 298h-34c-28 0 -29 -12 -29 -20z" />
    <glyph glyph-name="E" unicode="E" horiz-adv-x="666" 
d="M288 567v-201h25c63 0 115 38 114 112h39l-3 -135l3 -135h-39c1 74 -51 112 -114 112h-25v-132c0 -124 37 -143 123 -143c53 0 166 12 178 148h39c-4 -34 -8 -85 -6 -133l2 -62l-454 3c-52 0 -3 -2 -142 -3v38l22 2c83 8 82 36 82 93v404c0 57 1 85 -82 93l-22 2v38
c138 -1 93 -3 142 -3l412 3c3 -91 4 -125 8 -177h-43c-14 124 -124 128 -192 128h-22c-46 0 -45 -3 -45 -52z" />
    <glyph glyph-name="F" unicode="F" horiz-adv-x="632" 
d="M28 36l22 2c83 8 82 36 82 93v404c0 57 1 85 -82 93l-22 2v38c139 -1 93 -3 142 -3l417 3c3 -101 2 -42 9 -173h-40c-26 128 -140 123 -215 123h-17c-16 0 -26 -1 -31 -5c-5 -5 -5 -17 -5 -26v-228h25c63 0 115 38 114 112h39l-3 -135l3 -135h-39c1 74 -51 112 -114 112
h-25v-182c0 -24 -1 -53 18 -72c18 -18 52 -19 74 -21l22 -2v-38c-25 0 -49 0 -74 1c-26 1 -52 2 -78 2h-80c-24 0 -49 -1 -73 -2c-23 -1 -46 -1 -69 -1v38z" />
    <glyph glyph-name="G" unicode="G" horiz-adv-x="792" 
d="M652 674l10 -211h-45c-26 104 -102 167 -190 167c-90 0 -204 -66 -204 -298c0 -251 131 -297 199 -297c35 0 91 20 112 53c13 21 16 48 16 74c0 36 -3 81 -69 86l-14 1v38h303v-38l-15 -1c-30 -2 -49 -10 -49 -74v-117l-18 -2c-32 -4 -55 -7 -96 -20
c-59 -19 -114 -48 -201 -48c-198 0 -346 135 -346 335c0 205 149 357 354 357c46 0 118 -7 194 -62l16 57h43z" />
    <glyph glyph-name="H" unicode="H" horiz-adv-x="876" 
d="M28 630v38c23 0 46 0 69 -1c24 -1 49 -2 73 -2h80c24 0 49 1 73 2c23 1 46 1 69 1v-38l-22 -2c-83 -8 -82 -36 -82 -93v-171h300v171c0 57 1 85 -82 93l-22 2v38c23 0 46 0 69 -1c24 -1 49 -2 73 -2h80c24 0 49 1 73 2c23 1 46 1 69 1v-38l-22 -2c-83 -8 -82 -36 -82 -93
v-404c0 -57 -1 -85 82 -93l22 -2v-38c-23 0 -46 0 -69 1c-24 1 -49 2 -73 2h-80c-24 0 -49 -1 -73 -2c-23 -1 -46 -1 -69 -1v38l22 2c83 8 82 36 82 93v183h-300v-183c0 -57 -1 -85 82 -93l22 -2v-38c-23 0 -46 0 -69 1c-24 1 -49 2 -73 2h-80c-24 0 -49 -1 -73 -2
c-23 -1 -46 -1 -69 -1v38l22 2c83 8 82 36 82 93v404c0 57 1 85 -82 93z" />
    <glyph glyph-name="I" unicode="I" horiz-adv-x="420" 
d="M28 630v38c23 0 46 0 69 -1c24 -1 49 -2 73 -2h80c24 0 49 1 73 2c23 1 46 1 69 1v-38l-22 -2c-83 -8 -82 -36 -82 -93v-404c0 -57 -1 -85 82 -93l22 -2v-38c-23 0 -46 0 -69 1c-24 1 -49 2 -73 2h-80c-24 0 -49 -1 -73 -2c-23 -1 -46 -1 -69 -1v38l22 2
c83 8 82 36 82 93v404c0 57 1 85 -82 93z" />
    <glyph glyph-name="J" unicode="J" horiz-adv-x="422" 
d="M30 630v38c23 0 46 0 69 -1c24 -1 49 -2 73 -2h80c24 0 49 1 73 2c23 1 46 1 69 1v-38l-22 -2c-83 -8 -82 -36 -82 -93v-526c0 -101 -9 -181 -82 -233c-50 -36 -103 -42 -147 -42c-125 0 -160 61 -160 99c0 33 24 57 56 57c43 0 60 -38 68 -63c5 -16 13 -45 47 -45
c37 0 47 31 52 55c7 37 10 102 10 137v561c0 57 1 85 -82 93z" />
    <glyph glyph-name="K" unicode="K" horiz-adv-x="767" 
d="M288 236v-105c0 -82 22 -88 77 -93l22 -2v-38c-22 0 -45 0 -67 1c-23 1 -47 2 -70 2h-80c-24 0 -49 -1 -73 -2c-23 -1 -46 -1 -69 -1v38l22 2c83 8 82 36 82 93v404c0 57 1 85 -82 93l-22 2v38c23 0 46 0 69 -1c24 -1 49 -2 73 -2h80c23 0 47 1 70 2c22 1 45 1 67 1v-38
l-22 -2c-55 -5 -77 -11 -77 -93v-233l77 85c29 32 142 168 142 206c0 30 -31 31 -52 34l-24 3v38c65 -1 88 -3 116 -3h38l107 3v-38l-27 -3c-52 -6 -84 -48 -116 -88l-105 -128l244 -311c23 -30 40 -56 84 -64v-38c-66 1 -100 3 -132 3h-65c-60 0 -16 -2 -136 -3v38l23 1
c26 1 37 6 42 11c8 7 15 21 4 43c-5 10 -13 22 -32 46l-127 165z" />
    <glyph glyph-name="L" unicode="L" horiz-adv-x="666" 
d="M602 192h44c-3 -47 -7 -110 -7 -194l-469 3c-54 0 -3 -2 -142 -3v38l22 2c83 8 82 36 82 93v404c0 57 1 85 -82 93l-22 2v38c23 0 46 0 69 -1c24 -1 49 -2 73 -2h80c24 0 49 1 73 2c23 1 46 1 69 1v-38l-22 -2c-83 -8 -82 -36 -82 -93v-338c0 -131 30 -150 127 -150
c89 0 161 18 187 145z" />
    <glyph glyph-name="M" unicode="M" horiz-adv-x="937" 
d="M396 -2l-214 515v-360c0 -44 -1 -102 83 -114l21 -3v-38c-52 1 -87 3 -114 3h-33c-27 0 -60 -2 -111 -3v38l21 3c84 12 83 70 83 114v436c-16 27 -39 35 -82 39l-22 2v38c78 -2 118 -4 158 -3l88 3l200 -471l17 42c58 143 105 260 165 429l106 -3c35 -1 75 2 147 3v-38
l-22 -2c-83 -8 -82 -36 -82 -93v-404c0 -57 -1 -85 82 -93l22 -2v-38c-23 0 -46 0 -69 1c-24 1 -49 2 -73 2h-80c-24 0 -49 -1 -73 -2c-23 -1 -46 -1 -69 -1v38l22 2c83 8 82 36 82 93v376c-143 -368 -72 -165 -204 -509h-49z" />
    <glyph glyph-name="N" unicode="N" horiz-adv-x="815" 
d="M643 -16l-463 525v-326c0 -85 7 -144 96 -147v-38c-13 0 -27 1 -40 1c-20 1 -41 2 -61 2h-46c-18 0 -37 -1 -55 -2c-12 0 -23 -1 -35 -1v38c87 2 91 76 91 115v413c-20 36 -54 65 -102 66v38c78 -2 83 -3 104 -3c20 0 35 1 108 3l403 -459v281c0 39 2 134 -81 139l-17 1
v38c68 -2 89 -3 117 -3c33 0 2 1 121 3v-38l-13 -1c-60 -5 -77 -44 -77 -111v-534h-50z" />
    <glyph glyph-name="O" unicode="O" horiz-adv-x="852" 
d="M807 327c0 -216 -191 -340 -389 -340c-197 0 -373 139 -373 347c0 205 169 345 383 345c239 0 379 -166 379 -352zM629 335c0 266 -137 298 -205 298c-65 0 -201 -33 -201 -293c0 -268 130 -307 201 -307c106 0 205 63 205 302z" />
    <glyph glyph-name="P" unicode="P" horiz-adv-x="675" 
d="M288 306v-175c0 -47 -10 -84 92 -93l22 -2v-38c-25 0 -49 0 -74 1c-26 1 -52 2 -78 2h-80c-24 0 -49 -1 -73 -2c-23 -1 -46 -1 -69 -1v38l22 2c83 8 82 36 82 93v404c0 57 1 85 -82 93l-22 2v38c93 -1 129 -4 169 -3l182 3c196 3 253 -95 253 -174
c0 -53 -23 -188 -282 -188h-62zM288 586v-233c10 -1 20 -2 30 -2c57 0 146 20 146 138c0 40 -9 133 -133 133c-38 0 -43 -4 -43 -36z" />
    <glyph glyph-name="Q" unicode="Q" horiz-adv-x="853" 
d="M385 -22l16 7c-224 11 -356 165 -356 340c0 214 181 354 382 354c246 0 381 -185 381 -356c0 -130 -84 -266 -310 -346l-149 -53v-2c24 3 49 3 73 3c70 0 108 -18 160 -36c63 -22 98 -30 129 -30c52 0 71 25 87 44c8 9 15 19 26 19c12 0 13 -14 13 -19
c0 -73 -64 -171 -171 -171c-71 0 -124 39 -180 80c-53 39 -103 75 -166 75c-40 0 -69 -15 -94 -27c-31 -14 -41 -18 -49 -18c-14 0 -27 11 -27 26c0 24 31 33 44 37c66 21 84 26 191 73zM630 330c0 234 -113 303 -207 303c-69 0 -200 -38 -200 -302
c0 -235 121 -300 211 -300c70 0 196 35 196 299z" />
    <glyph glyph-name="R" unicode="R" horiz-adv-x="751" 
d="M28 630v38c108 -1 126 -4 168 -3l165 3c128 2 223 -11 266 -101c10 -21 15 -43 15 -66c0 -82 -57 -154 -159 -168c41 -43 77 -86 139 -173c50 -70 72 -109 134 -124v-38l-109 3l-93 -3l-93 135c-116 169 -135 166 -161 166h-12v-169c0 -57 -1 -85 82 -93l22 -2v-37
c-23 0 -46 0 -69 1c-24 1 -49 2 -73 2h-80c-24 0 -49 -1 -73 -2c-23 -1 -46 -1 -69 -1v38l22 2c83 8 82 36 82 93v404c0 57 1 85 -82 93zM288 345h38c57 0 148 8 148 138c0 125 -77 137 -147 139h-14c-10 0 -25 -3 -25 -28v-249z" />
    <glyph glyph-name="S" unicode="S" horiz-adv-x="556" 
d="M478 487h-46c-20 91 -86 146 -161 146c-64 0 -101 -40 -101 -83c0 -91 112 -105 211 -160c70 -39 135 -90 135 -191c0 -122 -97 -212 -242 -212c-45 0 -114 10 -175 69l-14 -56h-45l1 113l-1 98h45c19 -76 78 -178 184 -178c77 0 115 55 115 108c0 71 -58 96 -143 135
c-97 45 -191 86 -191 212c0 100 70 191 220 191c48 0 99 -11 146 -49l13 40h43c0 -45 1 -94 6 -183z" />
    <glyph glyph-name="T" unicode="T" horiz-adv-x="700" 
d="M61 477h-41c4 56 5 93 8 191l225 -3h194l225 3c3 -98 4 -135 8 -191h-41l-4 22c-13 70 -60 116 -175 116c-35 0 -32 -10 -32 -38v-446c0 -57 -1 -85 82 -93l22 -2v-38c-23 0 -46 0 -69 1c-24 1 -49 2 -73 2h-80c-24 0 -49 -1 -73 -2c-23 -1 -46 -1 -69 -1v38l22 2
c83 8 82 36 82 93v446c0 28 3 38 -32 38c-115 0 -162 -46 -175 -116z" />
    <glyph glyph-name="U" unicode="U" horiz-adv-x="837" 
d="M28 630v38c23 0 46 0 69 -1c24 -1 49 -2 73 -2h80c24 0 49 1 73 2c23 1 46 1 69 1v-38l-22 -2c-83 -8 -82 -36 -82 -93v-288c0 -174 93 -195 169 -195c196 0 202 156 202 218v202c0 101 -11 157 -104 158v38c77 -2 100 -3 127 -3s50 1 127 3v-38
c-93 -1 -104 -57 -104 -158v-202c0 -272 -209 -283 -278 -283c-281 0 -295 173 -295 261v287c0 57 1 85 -82 93z" />
    <glyph glyph-name="V" unicode="V" horiz-adv-x="679" 
d="M361 -13h-49l-218 549c-25 63 -42 93 -112 94v38c39 -1 91 -3 132 -3h66c47 0 106 2 152 3v-38h-22c-61 0 -64 -28 -64 -45c0 -24 8 -40 18 -67l127 -339l120 302c11 27 21 67 21 93c0 47 -34 54 -64 55l-20 1v38c79 -2 72 -2 103 -3h53c19 0 39 1 58 2c13 0 26 1 39 1
v-38l-9 -1c-64 -7 -73 -22 -118 -131z" />
    <glyph glyph-name="W" unicode="W" horiz-adv-x="917" 
d="M621 -13l-150 438l-150 -438h-51l-190 551c-19 54 -25 83 -95 92v38c41 -2 85 -3 134 -3h51c49 0 95 1 147 3v-38c-86 4 -85 -37 -85 -54c0 -32 13 -47 19 -66l96 -308l146 466h46l160 -459l9 26c22 64 89 277 89 332c0 29 -11 56 -62 61l-20 2v38c25 -1 51 -1 76 -2
c11 0 21 -1 32 -1h30l84 3v-38c-57 -6 -68 -37 -80 -75l-55 -175c-32 -103 -59 -188 -132 -393h-49z" />
    <glyph glyph-name="X" unicode="X" horiz-adv-x="730" 
d="M431 373l199 -259c28 -36 49 -74 110 -78v-38c-34 1 -90 3 -126 3h-68h-56c-30 0 -75 -2 -104 -3v38l19 2c29 3 64 0 64 32c0 18 -18 40 -31 56l-105 132l-13 -14c-112 -121 -113 -157 -113 -167c0 -30 24 -35 57 -39l16 -2v-38c-33 1 -118 4 -158 3l-103 -3v38
c98 13 132 93 284 262l-185 245c-34 46 -48 73 -113 87v38c29 -1 74 -3 104 -3h56h67c36 0 92 2 125 3v-38l-15 -1c-24 -2 -60 2 -60 -28c0 -13 4 -35 42 -85l80 -105l23 28c75 92 93 127 93 151c0 37 -42 36 -58 38l-19 2v38c31 -2 84 -4 119 -3l140 3v-38
c-108 -13 -145 -109 -271 -257z" />
    <glyph glyph-name="Y" unicode="Y" horiz-adv-x="649" 
d="M-10 630v38c23 -1 72 -3 129 -3h56c35 0 74 2 143 3v-38l-22 -2c-23 -2 -55 -5 -55 -38c0 -7 1 -24 24 -65l115 -203l7 11c113 178 130 231 130 254c0 21 -19 47 -76 43v38c12 0 65 -2 95 -2h36c11 0 27 0 92 2v-38c-85 -10 -102 -114 -256 -358v-141
c0 -57 -1 -85 82 -93l22 -2v-38c-23 0 -46 0 -69 1c-24 1 -49 2 -73 2h-80c-24 0 -49 -1 -73 -2c-23 -1 -46 -1 -69 -1v38l22 2c83 8 82 36 82 93v121l-174 308c-16 28 -29 60 -88 70z" />
    <glyph glyph-name="Z" unicode="Z" horiz-adv-x="619" 
d="M584 632l-366 -584h112c57 0 201 0 213 152h41c-4 -54 -7 -103 -11 -202h-538v36l370 584h-118c-56 0 -156 1 -179 -133h-42l6 183h512v-36z" />
    <glyph glyph-name="bracketleft" unicode="[" horiz-adv-x="334" 
d="M284 649h-133v-813h133v-36h-234v887h234v-38z" />
    <glyph glyph-name="backslash" unicode="\" horiz-adv-x="560" 
d="M0 687h64l544 -887h-65z" />
    <glyph glyph-name="bracketright" unicode="]" horiz-adv-x="334" 
d="M50 -162h133v812h-133v37h234v-887h-234v38z" />
    <glyph glyph-name="asciicircum" unicode="^" horiz-adv-x="382" 
d="M191 546l-110 -290h-81l152 400h78l152 -400h-81z" />
    <glyph glyph-name="underscore" unicode="_" horiz-adv-x="504" 
d="M0 -92h504v-76h-504v76z" />
    <glyph glyph-name="grave" unicode="`" horiz-adv-x="497" 
d="M347 513h-31l-139 100c-9 7 -27 16 -27 35c0 21 15 38 40 38c21 0 34 -17 49 -36z" />
    <glyph glyph-name="a" unicode="a" horiz-adv-x="498" 
d="M481 78l20 -28c-31 -45 -81 -60 -117 -60c-41 0 -81 19 -93 65c-18 -19 -38 -34 -63 -46c-22 -11 -47 -19 -81 -19c-75 0 -112 54 -112 107c0 98 113 139 204 168c47 15 52 21 52 36v51c0 38 -30 53 -60 53c-44 0 -59 -31 -66 -54s-15 -59 -59 -59c-31 0 -59 22 -59 55
c0 23 11 98 197 98c65 0 101 -14 119 -24c47 -24 62 -60 62 -113v-221c0 -20 13 -25 23 -25c12 0 24 7 33 16zM291 139v108l-20 -9c-52 -23 -97 -51 -97 -111c0 -37 21 -58 50 -58c30 0 67 22 67 70z" />
    <glyph glyph-name="b" unicode="b" horiz-adv-x="596" 
d="M225 687v-290c27 26 66 48 120 48c124 0 209 -103 209 -223c0 -133 -97 -232 -229 -232c-30 0 -82 6 -128 48l-88 -53h-18v542c0 33 3 99 -69 96v34c77 4 143 16 196 30h7zM225 289v-151c0 -29 1 -101 76 -101c98 0 109 105 109 178c0 131 -49 172 -105 172
c-25 0 -80 -10 -80 -98z" />
    <glyph glyph-name="c" unicode="c" horiz-adv-x="506" 
d="M433 116l31 -27c-54 -81 -137 -99 -195 -99c-131 0 -227 87 -227 220c0 111 79 235 251 235c27 0 93 -2 136 -39c21 -18 29 -40 29 -57c0 -23 -15 -54 -53 -54c-44 0 -58 36 -67 57c-10 25 -21 53 -57 53c-46 0 -90 -35 -90 -178c0 -36 4 -117 48 -154
c17 -15 44 -26 72 -26c47 0 93 32 122 69z" />
    <glyph glyph-name="d" unicode="d" horiz-adv-x="622" 
d="M597 60v-34c-52 -7 -115 -19 -187 -40c-7 37 -9 67 -10 90c-25 -37 -75 -86 -154 -86c-122 0 -204 104 -204 220c0 130 86 235 211 235c55 0 104 -24 138 -66v161c0 34 -1 76 -49 81l-21 2v34c87 8 150 20 196 30h8v-534c0 -33 0 -97 55 -94zM391 196v55
c0 76 -30 132 -96 132s-110 -49 -110 -158c0 -130 50 -167 107 -167c101 0 99 110 99 138z" />
    <glyph glyph-name="e" unicode="e" horiz-adv-x="526" 
d="M447 114l33 -26c-49 -71 -124 -98 -202 -98c-128 0 -236 88 -236 222c0 138 107 233 241 233c139 0 203 -97 203 -182c0 -19 -3 -26 -25 -26h-270v-22c0 -126 71 -166 133 -166c21 0 72 3 123 65zM192 280h126c18 0 38 -2 38 25c0 47 -29 100 -76 100
c-46 0 -87 -44 -88 -125z" />
    <glyph glyph-name="f" unicode="f" horiz-adv-x="375" 
d="M25 391v43h70v44c0 43 0 208 207 208c90 0 128 -33 128 -76c0 -31 -22 -57 -54 -57c-36 0 -51 28 -58 44c-8 19 -16 49 -43 49c-44 0 -46 -67 -46 -131v-81h126v-43h-126v-282c0 -41 6 -71 83 -76l17 -1v-34c-34 1 -127 3 -167 3c-33 0 -105 -2 -137 -3v34l17 1
c32 2 53 12 53 76v282h-70z" />
    <glyph glyph-name="g" unicode="g" horiz-adv-x="555" 
d="M154 146c-63 18 -106 70 -106 135c0 72 51 164 198 164c55 0 95 -10 130 -35c25 23 64 44 105 44c36 0 58 -25 58 -52c0 -18 -7 -45 -36 -45c-31 0 -40 15 -54 27c-6 5 -16 10 -23 10c-10 0 -19 -8 -22 -11c25 -28 38 -62 38 -96c0 -139 -139 -153 -200 -156
c-41 -2 -86 -3 -86 -44s67 -36 112 -36c88 1 231 -7 231 -153c0 -68 -48 -169 -248 -169c-147 0 -216 50 -216 113c0 39 26 73 65 73c22 0 51 -12 51 -21c0 -5 -8 -11 -13 -15c-6 -7 -15 -17 -15 -33s6 -76 127 -76c128 0 152 58 152 91c0 71 -75 72 -124 73
c-66 1 -154 -1 -197 42c-16 16 -26 38 -26 62c0 47 33 92 99 108zM245 405c-57 0 -61 -80 -61 -119s4 -119 61 -119s61 80 61 119s-4 119 -61 119z" />
    <glyph glyph-name="h" unicode="h" horiz-adv-x="619" 
d="M229 687v-323c46 72 118 81 154 81c136 0 141 -108 141 -137v-199c0 -64 21 -74 53 -76l17 -1v-34c-29 1 -105 3 -137 3s-103 -2 -132 -3v34l17 1c23 1 48 6 48 76v157c0 48 -6 108 -69 108c-33 0 -92 -18 -92 -141v-124c0 -70 25 -75 48 -76l17 -1v-34
c-29 1 -100 3 -132 3s-108 -2 -137 -3v34l17 1c32 2 53 12 53 76v458c0 44 -39 52 -48 53l-22 3v34c78 6 144 18 197 30h7z" />
    <glyph glyph-name="i" unicode="i" horiz-adv-x="324" 
d="M229 448v-339c0 -64 21 -74 53 -76l17 -1v-34c-29 1 -105 3 -137 3s-108 -2 -137 -3v34l17 1c32 2 53 12 53 76v187c0 26 4 84 -70 86v34c100 10 154 21 198 32h6zM77 620c0 42 34 76 76 76s76 -34 76 -76s-34 -76 -76 -76s-76 34 -76 76z" />
    <glyph glyph-name="j" unicode="j" horiz-adv-x="318" 
d="M229 448v-483c0 -81 -12 -243 -200 -243c-113 0 -136 43 -136 77c0 31 24 55 55 55c17 0 51 -8 59 -48c4 -17 8 -44 39 -44c48 0 49 65 49 109v425c0 41 4 78 -70 87v34c86 6 151 19 198 31h6zM77 620c0 42 34 76 76 76s76 -34 76 -76s-34 -76 -76 -76s-76 34 -76 76z
" />
    <glyph glyph-name="k" unicode="k" horiz-adv-x="575" 
d="M266 189l-37 -32v-48c0 -70 25 -75 48 -76l17 -1v-34c-29 1 -100 3 -132 3s-108 -2 -137 -3v34l17 1c32 2 53 12 53 76v467c0 38 -32 45 -50 46l-20 1v34c78 4 144 16 197 30h7v-473l88 87c18 18 45 53 45 73c0 24 -26 28 -49 28h-9v34c57 -2 85 -3 112 -3
c22 0 43 1 65 2c15 0 30 1 45 1v-34c-75 -15 -111 -58 -157 -104l-21 -21l150 -196c14 -19 24 -38 57 -51v-32l-74 3l-76 -3z" />
    <glyph glyph-name="l" unicode="l" horiz-adv-x="324" 
d="M229 687v-578c0 -64 21 -74 53 -76l17 -1v-34c-29 1 -105 3 -137 3s-108 -2 -137 -3v34l17 1c32 2 53 12 53 76v421c0 53 0 89 -70 93v34c86 7 152 19 199 30h5z" />
    <glyph glyph-name="m" unicode="m" horiz-adv-x="896" 
d="M25 373v34c89 9 154 26 192 38c3 -22 7 -52 7 -91c39 71 109 91 156 91c45 0 110 -19 127 -91c51 87 127 91 157 91c91 0 137 -63 137 -132v-204c0 -64 21 -74 53 -76l17 -1v-34c-94 3 -164 5 -261 0v34l12 1c47 4 45 54 45 76v158c0 47 -1 108 -63 108
c-32 0 -89 -17 -89 -138v-128c0 -22 -2 -72 45 -76l12 -1v-34c-41 3 -64 3 -107 3h-49c-26 0 -66 -2 -92 -3v34l12 1c47 4 45 54 45 76v158c0 44 -2 108 -63 108c-38 0 -89 -22 -89 -154v-112c0 -22 -2 -72 45 -76l12 -1v-34c-56 3 -89 3 -124 3c-18 0 -71 -1 -137 -3v34
l17 1c32 2 53 12 53 76v165c0 42 1 101 -70 99z" />
    <glyph glyph-name="n" unicode="n" horiz-adv-x="620" 
d="M29 373v34c95 13 137 21 188 38c8 -41 11 -61 12 -90c45 80 119 90 161 90c136 0 135 -113 135 -163v-173c0 -64 21 -74 53 -76l17 -1v-34c-32 1 -103 3 -137 3c-35 0 -88 -1 -131 -3v34l15 1c50 3 49 48 49 76v156c0 31 4 110 -70 110c-88 0 -92 -112 -92 -151v-115
c0 -28 -1 -73 49 -76l15 -1v-34c-43 2 -96 3 -131 3c-34 0 -105 -2 -137 -3v34l17 1c32 2 53 12 53 76v172c0 36 0 91 -66 92z" />
    <glyph glyph-name="o" unicode="o" horiz-adv-x="578" 
d="M536 218c0 -140 -121 -228 -250 -228c-157 0 -244 123 -244 230c0 134 120 225 247 225c129 0 247 -91 247 -227zM387 208c0 93 -7 197 -97 197c-86 0 -99 -95 -99 -184c0 -93 11 -191 99 -191c85 0 97 90 97 178z" />
    <glyph glyph-name="p" unicode="p" horiz-adv-x="621" 
d="M25 -270v34l17 1c33 2 53 12 53 77v437c0 43 -3 98 -70 94v34c87 8 151 25 196 41c5 -29 5 -47 8 -87c33 51 87 83 151 83c121 0 199 -110 199 -224c0 -115 -80 -231 -206 -231c-54 0 -106 23 -144 59v-207c0 -29 -3 -72 63 -76l17 -1v-34c-30 1 -112 3 -147 3
c-33 0 -106 -2 -137 -3zM229 260v-80c0 -97 41 -131 94 -131c45 0 113 26 113 164c0 137 -58 166 -104 166c-51 0 -103 -41 -103 -119z" />
    <glyph glyph-name="q" unicode="q" horiz-adv-x="597" 
d="M507 445v-604c0 -64 21 -74 53 -76l17 -1v-34c-31 1 -104 3 -137 3c-35 0 -117 -2 -147 -3v34l17 1c66 4 63 47 63 76v218c-31 -44 -77 -69 -130 -69c-96 0 -201 77 -201 217c0 135 92 238 229 238c33 0 86 -6 140 -49l74 49h22zM373 183v91c0 38 -1 131 -80 131
c-48 0 -108 -29 -108 -181c0 -90 19 -172 100 -172c42 0 88 23 88 131z" />
    <glyph glyph-name="r" unicode="r" horiz-adv-x="471" 
d="M25 373v34c96 9 159 29 191 41c2 -14 7 -45 7 -96c17 35 59 93 127 93c47 0 79 -30 79 -69c0 -28 -17 -63 -58 -63c-32 0 -42 15 -50 27c-9 13 -16 23 -30 23c-28 0 -62 -23 -62 -129v-125c0 -29 -3 -72 63 -76l17 -1v-34c-30 1 -112 3 -147 3c-33 0 -106 -2 -137 -3v34
l17 1c32 2 53 12 53 76v166c0 27 2 98 -54 98h-16z" />
    <glyph glyph-name="s" unicode="s" horiz-adv-x="453" 
d="M380 314h-37c-20 50 -62 91 -121 91c-47 0 -68 -27 -68 -51c0 -42 49 -52 95 -67c66 -22 154 -49 159 -148c3 -57 -32 -149 -183 -149c-37 0 -83 6 -126 41l-18 -41h-36v149h32c20 -47 67 -109 139 -109c52 0 79 29 79 57c0 45 -54 58 -97 73c-68 23 -152 50 -152 152
c0 76 58 133 160 133c34 0 76 -6 120 -33l17 33h37v-131z" />
    <glyph glyph-name="t" unicode="t" horiz-adv-x="368" 
d="M214 391v-274c0 -11 1 -37 7 -49c5 -10 15 -19 32 -19c21 0 39 17 54 42l36 -25c-37 -66 -89 -76 -130 -76c-45 0 -80 12 -102 33c-28 27 -31 60 -31 98v270h-55v34c109 27 139 124 145 145h44v-136h103v-43h-103z" />
    <glyph glyph-name="u" unicode="u" horiz-adv-x="608" 
d="M319 397v34l196 5v-298c0 -70 21 -75 56 -75h12v-34c-81 -15 -122 -22 -181 -39c-8 45 -9 75 -10 95c-27 -41 -79 -95 -172 -95c-120 0 -132 83 -132 153v176c0 28 -1 47 -9 59c-11 15 -29 17 -38 18l-16 1v34l197 5v-263c0 -69 10 -115 65 -115c29 0 49 12 61 24
c28 28 33 77 33 146v96c0 20 1 42 -11 55c-8 9 -24 15 -35 16z" />
    <glyph glyph-name="v" unicode="v" horiz-adv-x="487" 
d="M216 322l76 -175l64 149c10 24 48 113 -41 106v34c27 -1 71 -3 93 -3s65 2 84 3v-34c-50 -4 -57 -37 -80 -88l-148 -324h-41l-158 347c-13 29 -28 59 -70 65v34c99 -2 110 -3 137 -3c22 0 42 1 122 3v-34c-28 1 -57 -2 -57 -27c0 -17 13 -40 19 -53z" />
    <glyph glyph-name="w" unicode="w" horiz-adv-x="714" 
d="M378 436h41l106 -283h3c62 152 72 184 72 204c0 28 -14 42 -47 44l-16 1v34c12 0 65 -2 95 -2c31 0 75 2 87 2v-34c-18 -1 -46 -8 -64 -45c-16 -35 -85 -211 -112 -277l-37 -90h-42l-109 258h-3l-105 -258h-42l-137 338c-19 47 -34 71 -73 74v34c86 -2 108 -2 123 -2
c27 0 53 1 144 2v-34l-21 -1c-35 -2 -53 -20 -39 -59l66 -178h3z" />
    <glyph glyph-name="x" unicode="x" horiz-adv-x="557" 
d="M329 251l144 -168c26 -30 42 -46 79 -51v-34c-46 2 -102 3 -139 3c-35 0 -98 -2 -140 -3v34h13c14 0 32 2 32 20c0 5 -3 22 -62 89l-15 17l-14 -15c-39 -41 -63 -66 -63 -84c0 -12 15 -30 51 -27v-34c-20 1 -41 1 -61 2c-9 1 -18 1 -27 1l-111 -3v34c80 24 95 46 129 82
l70 74l-139 164c-25 30 -40 45 -69 50v34c63 -1 103 -3 137 -3c32 0 72 2 132 3v-34h-13c-11 0 -30 -7 -30 -22c0 -19 37 -61 56 -81l17 -18l9 9c19 19 62 64 62 85s-21 27 -31 27h-17v34c45 -1 75 -3 94 -3c23 0 52 2 98 3v-34c-52 -9 -77 -36 -116 -75z" />
    <glyph glyph-name="y" unicode="y" horiz-adv-x="492" 
d="M223 -11l-150 342c-14 32 -25 65 -73 71v34c63 -1 103 -3 137 -3c22 0 40 1 124 3v-34h-11c-36 0 -45 -12 -45 -29c0 -16 8 -35 20 -65l69 -169l61 142c15 35 24 57 24 82c0 37 -38 40 -56 39v34c63 -2 75 -3 93 -3c14 0 28 1 81 3v-34c-61 -9 -72 -70 -108 -149
l-182 -399c-25 -54 -53 -131 -124 -131c-33 0 -58 21 -58 54c0 35 26 49 44 55c49 16 85 -1 144 134z" />
    <glyph glyph-name="z" unicode="z" horiz-adv-x="470" 
d="M430 403l-231 -363h60c57 0 116 9 137 111h34l-6 -153h-386v30l233 368h-45c-37 0 -121 -3 -136 -102h-38l9 142h369v-33z" />
    <glyph glyph-name="braceleft" unicode="{" horiz-adv-x="457" 
d="M60 251v26c46 -3 77 23 76 75l-3 192c-1 87 26 139 194 139h30v-26c-94 8 -105 -57 -108 -112c-3 -50 1 -100 0 -151c-1 -46 -13 -122 -103 -128v-4c90 -6 102 -82 103 -128c3 -118 -35 -275 108 -263v-26h-30c-168 0 -195 52 -194 139l3 192c1 52 -30 78 -76 75z" />
    <glyph glyph-name="bar" unicode="|" horiz-adv-x="501" 
d="M200 666h101v-833h-101v833z" />
    <glyph glyph-name="braceright" unicode="}" horiz-adv-x="457" 
d="M397 277v-26c-46 3 -77 -23 -76 -75l3 -192c1 -87 -26 -139 -194 -139h-30v26c94 -8 105 57 108 112c3 50 -1 100 0 151c1 46 13 122 103 128v4c-90 6 -102 82 -103 128c-3 118 35 275 -108 263v26h30c168 0 195 -52 194 -139l-3 -192c-1 -52 30 -78 76 -75z" />
    <glyph glyph-name="asciitilde" unicode="~" horiz-adv-x="666" 
d="M506 733l23 -14c-15 -33 -61 -111 -132 -111c-23 0 -44 6 -81 19c-29 10 -52 20 -81 20c-33 0 -47 -16 -71 -40l-5 -5l-22 14c43 86 89 112 127 112c32 0 63 -14 109 -29c17 -5 33 -10 53 -10c35 0 62 21 80 44z" />
    <glyph glyph-name="afii10051" unicode="&#x402;" horiz-adv-x="876" 
d="M158 -2v38l22 2c83 8 82 36 82 93v446c0 28 3 38 -32 38h-24c-68 0 -132 -39 -146 -116l-4 -22h-41c4 56 5 93 8 191l245 -3h147l257 3c3 -98 4 -135 8 -191h-41l-4 22c-2 14 -22 116 -146 116h-39c-35 0 -32 -10 -32 -38v-202c50 13 117 24 170 24
c161 0 253 -88 253 -203c0 -107 -78 -209 -228 -209c-105 0 -151 48 -151 95c0 33 28 46 52 46c41 0 51 -37 56 -54c4 -17 11 -39 40 -39c55 0 68 87 68 151c0 125 -75 160 -135 160c-36 0 -89 -7 -125 -17v-329h-118c-26 0 -55 -1 -142 -2z" />
    <glyph glyph-name="afii10052" unicode="&#x403;" horiz-adv-x="629" 
d="M288 577v-446c0 -57 -1 -85 88 -93l22 -2v-38c-24 0 -48 0 -72 1c-25 1 -51 2 -76 2h-80c-24 0 -49 -1 -73 -2c-23 -1 -46 -1 -69 -1v38l22 2c83 8 82 36 82 93v404c0 57 1 85 -82 93l-22 2v38c23 0 46 0 69 -1c24 -1 49 -2 73 -2h225l197 3c4 -98 6 -135 12 -191h-41
l-6 25c-26 108 -105 113 -168 113h-72c-25 0 -29 1 -29 -38zM250 694l143 164c19 22 36 44 69 44c32 0 50 -23 50 -44c0 -32 -34 -54 -56 -67l-165 -97h-41z" />
    <glyph glyph-name="quotesinglbase" unicode="&#x201a;" horiz-adv-x="291" 
d="M69 -181l-16 28l16 8c37 19 103 69 108 145c-16 -10 -28 -13 -41 -13c-47 0 -80 33 -80 79c0 48 36 84 85 84c46 0 97 -36 97 -116c0 -66 -32 -152 -143 -203z" />
    <glyph glyph-name="afii10100" unicode="&#x453;" horiz-adv-x="477" 
d="M25 402v34c26 -1 106 -3 137 -3l275 3l20 -156h-36l-9 24c-30 80 -80 89 -127 89h-24c-31 0 -32 -6 -32 -22v-262c0 -29 -2 -72 61 -76l17 -1v-34c-30 1 -111 3 -145 3c-33 0 -107 -2 -137 -3v34l17 1c32 2 53 12 53 76v216c0 64 -21 74 -53 76zM171 513l108 137
c10 13 25 36 49 36c26 0 40 -18 40 -38s-25 -35 -42 -47l-124 -88h-31z" />
    <glyph glyph-name="quotedblbase" unicode="&#x201e;" horiz-adv-x="524" 
d="M69 -181l-16 28l16 8c37 19 103 69 108 145c-16 -10 -28 -13 -41 -13c-47 0 -80 33 -80 79c0 48 36 84 85 84c46 0 97 -36 97 -116c0 -66 -32 -152 -143 -203zM302 -181l-16 28l16 8c37 19 103 69 108 145c-16 -10 -28 -13 -41 -13c-47 0 -80 33 -80 79c0 48 36 84 85 84
c46 0 97 -36 97 -116c0 -66 -32 -152 -143 -203z" />
    <glyph glyph-name="ellipsis" unicode="&#x2026;" horiz-adv-x="864" 
d="M60 71c0 47 37 84 84 84s84 -37 84 -84s-37 -84 -84 -84s-84 37 -84 84zM348 71c0 47 37 84 84 84s84 -37 84 -84s-37 -84 -84 -84s-84 37 -84 84zM636 71c0 47 37 84 84 84s84 -37 84 -84s-37 -84 -84 -84s-84 37 -84 84z" />
    <glyph glyph-name="dagger" unicode="&#x2020;" horiz-adv-x="532" 
d="M278 -200h-12h-12c0 49 -3 112 -6 143l-13 155c-3 33 -12 123 -36 210l40 36c-12 22 -35 37 -56 37c-20 0 -37 -12 -47 -17c-24 -13 -36 -17 -48 -17c-28 0 -51 22 -51 53c0 20 12 38 34 38c20 0 30 -16 30 -30c0 -7 -5 -14 -5 -22c0 -3 0 -9 9 -9c13 0 21 16 26 27
c6 15 14 38 41 38c28 0 41 -24 57 -38c10 -8 14 -9 16 -9s7 2 7 10c0 10 -5 16 -13 30c-10 17 -25 43 -25 73c0 18 5 42 31 73c3 3 7 6 7 12s-3 8 -7 11c-13 10 -25 22 -25 36c0 19 19 39 46 39s46 -20 46 -39c0 -12 -8 -21 -18 -30c-7 -6 -14 -9 -14 -17c0 -6 4 -9 7 -12
c26 -31 31 -55 31 -73c0 -30 -15 -56 -25 -73c-8 -14 -13 -20 -13 -30c0 -8 5 -10 7 -10c6 0 19 12 25 18c11 12 25 29 48 29c27 0 35 -23 41 -38c5 -11 13 -27 26 -27c9 0 9 6 9 9c0 8 -5 15 -5 22c0 14 10 30 30 30c22 0 34 -18 34 -38c0 -31 -23 -53 -51 -53
c-12 0 -24 4 -48 17c-10 5 -27 17 -47 17c-21 0 -44 -15 -56 -37l40 -36c-24 -87 -33 -177 -36 -210l-13 -155c-3 -31 -6 -94 -6 -143z" />
    <glyph glyph-name="daggerdbl" unicode="&#x2021;" horiz-adv-x="520" 
d="M204 446l33 35c-6 3 -13 5 -21 5c-21 0 -39 -8 -58 -17c-17 -8 -37 -18 -55 -18c-21 0 -44 17 -44 49c0 28 17 39 33 39c20 0 31 -17 30 -29c-1 -10 -8 -27 4 -27s15 15 21 27c6 13 15 29 37 29c5 0 16 0 33 -9c1 27 12 51 18 60s10 12 10 17s-4 7 -8 9
c-6 3 -17 12 -17 29c0 22 20 34 40 34s40 -12 40 -34c0 -17 -11 -26 -17 -29c-4 -2 -8 -4 -8 -9s4 -8 10 -17c7 -12 17 -35 18 -60c17 9 28 9 33 9c22 0 31 -16 37 -29c6 -12 9 -27 21 -27s5 17 4 27c-1 12 10 29 30 29c16 0 33 -11 33 -39c0 -32 -23 -49 -44 -49
c-18 0 -38 10 -55 18c-19 9 -37 17 -58 17c-8 0 -15 -2 -21 -5l33 -35l-46 -199h-20zM204 13l46 199h20l46 -199l-33 -35c6 -3 13 -5 21 -5c21 0 39 8 58 17c17 8 37 18 55 18c21 0 44 -17 44 -49c0 -28 -17 -39 -33 -39c-20 0 -31 17 -30 29c1 10 8 27 -4 27
s-15 -15 -21 -27c-6 -13 -15 -29 -37 -29c-5 0 -16 0 -33 9c-1 -25 -11 -48 -18 -60c-6 -9 -10 -12 -10 -17s4 -7 8 -9c6 -3 17 -12 17 -29c0 -22 -20 -34 -40 -34s-40 12 -40 34c0 17 11 26 17 29c4 2 8 4 8 9s-4 8 -10 17s-17 33 -18 60c-17 -9 -28 -9 -33 -9
c-22 0 -31 16 -37 29c-6 12 -9 27 -21 27s-5 -17 -4 -27c1 -12 -10 -29 -30 -29c-16 0 -33 11 -33 39c0 32 23 49 44 49c18 0 38 -10 55 -18c19 -9 37 -17 58 -17c8 0 15 2 21 5z" />
    <glyph glyph-name="accent" horiz-adv-x="1" 
d="M-352 513l109 137c10 13 25 36 49 36c26 0 40 -18 40 -38s-25 -35 -42 -47l-125 -88h-31z" />
    <glyph glyph-name="perthousand" unicode="&#x2030;" horiz-adv-x="1208" 
d="M629 722l-470 -779h-54l408 675c-35 -18 -71 -26 -99 -26c-24 0 -45 5 -77 14c10 -29 11 -42 11 -60c0 -132 -89 -242 -188 -242c-75 0 -160 56 -160 164c0 101 87 229 201 229c40 0 68 -17 100 -36c40 -24 66 -39 112 -39c89 0 154 70 179 100h37zM307 547
c0 88 -35 106 -59 106c-65 0 -128 -119 -128 -227c0 -53 31 -77 60 -77c66 0 127 116 127 198zM735 218c0 -110 -67 -249 -190 -249c-77 0 -156 50 -156 157c0 112 86 233 205 233c73 0 141 -41 141 -141zM694 216c0 71 -30 98 -56 98c-65 0 -129 -117 -129 -223
c0 -61 32 -77 56 -77c65 0 129 104 129 202zM1135 218c0 -111 -66 -249 -191 -249c-77 0 -155 49 -155 157c0 112 86 233 205 233c73 0 141 -41 141 -141zM1094 216c0 71 -30 98 -56 98c-65 0 -129 -117 -129 -223c0 -61 32 -77 56 -77c65 0 129 104 129 202z" />
    <glyph glyph-name="afii10058" unicode="&#x409;" horiz-adv-x="1069" 
d="M414 -2v38l14 1c59 4 82 16 82 93v461c0 27 -11 28 -25 28h-92c-34 0 -37 -20 -38 -30l-5 -90c-10 -173 -46 -364 -140 -458c-45 -45 -91 -54 -122 -54c-60 0 -83 40 -83 70s23 60 64 60c25 0 39 -12 47 -18c10 -7 21 -16 32 -16c18 0 41 21 61 58c49 91 68 185 77 299
c11 136 -11 179 -91 188l-17 2v38c116 -2 141 -3 163 -3h287c38 0 96 2 134 3v-38l-14 -1c-59 -4 -82 -16 -82 -93v-148c25 1 51 2 76 2c64 0 124 -3 179 -28c96 -44 115 -122 115 -173c0 -59 -25 -109 -60 -138c-58 -49 -155 -53 -223 -53c-32 0 -65 1 -97 2
c-23 1 -45 1 -68 1c-75 0 -141 -2 -174 -3zM666 342v-212c0 -72 40 -82 77 -82c65 0 119 41 119 146c0 145 -105 150 -135 150c-20 0 -41 1 -61 -2z" />
    <glyph glyph-name="guilsinglleft" unicode="&#x2039;" horiz-adv-x="275" 
d="M111 224l9 -11c90 -109 85 -129 85 -134c0 -3 -3 -5 -6 -5c-12 0 -36 27 -95 78c-69 60 -84 68 -84 72s15 12 84 72c59 51 83 78 95 78c3 0 6 -2 6 -5c0 -5 5 -25 -85 -134z" />
    <glyph glyph-name="afii10059" unicode="&#x40a;" horiz-adv-x="1152" 
d="M33 630v38c23 0 46 0 69 -1c24 -1 49 -2 73 -2h80c24 0 49 1 73 2c23 1 46 1 69 1v-38l-22 -2c-83 -8 -82 -36 -82 -93v-160h300v161c0 77 -23 89 -82 93l-14 1v38c32 -1 87 -3 121 -3h53h53c34 0 89 2 121 3v-38l-14 -1c-59 -4 -82 -16 -82 -93v-154c22 2 44 3 66 3
c244 0 304 -98 304 -196c0 -171 -163 -191 -259 -191c-56 0 -106 3 -189 3c-57 0 -117 -1 -174 -3v38l14 1c59 4 82 16 82 93v195h-300v-194c0 -57 -1 -85 82 -93l22 -2v-38c-23 0 -46 0 -69 1c-24 1 -49 2 -73 2h-80c-24 0 -49 -1 -73 -2c-23 -1 -46 -1 -69 -1v38l22 2
c83 8 82 36 82 93v404c0 57 1 85 -82 93zM749 336v-206c0 -37 9 -82 77 -82c36 0 119 18 119 146c0 142 -104 145 -135 145c-20 0 -41 0 -61 -3z" />
    <glyph glyph-name="afii10061" unicode="&#x40c;" horiz-adv-x="790" 
d="M288 373h48c85 0 106 60 137 139c29 72 69 167 180 167c62 0 86 -35 86 -74c0 -43 -35 -63 -68 -63c-15 0 -26 5 -35 9c-15 8 -27 19 -41 19c-37 0 -55 -56 -70 -92c-37 -89 -64 -111 -89 -123v-3c73 -16 131 -68 211 -214c11 -21 35 -68 69 -68c19 0 29 13 39 30l38 -17
c-33 -88 -106 -96 -139 -96c-127 0 -160 85 -185 148l-39 98c-31 78 -64 90 -106 90h-36v-192c0 -57 -1 -85 82 -93l22 -2v-38c-23 0 -46 0 -69 1c-24 1 -49 2 -73 2h-80c-24 0 -49 -1 -73 -2c-23 -1 -46 -1 -69 -1v38l22 2c83 8 82 36 82 93v404c0 57 1 85 -82 93l-22 2v38
c23 0 46 0 69 -1c24 -1 49 -2 73 -2h80c24 0 49 1 73 2c23 1 46 1 69 1v-38l-22 -2c-83 -8 -82 -36 -82 -93v-162zM368 694l143 164c19 22 36 44 69 44c32 0 50 -23 50 -44c0 -32 -34 -54 -56 -67l-165 -97h-41z" />
    <glyph glyph-name="afii10060" unicode="&#x40b;" horiz-adv-x="975" 
d="M158 -2v38l22 2c83 8 82 36 82 93v446c0 28 3 38 -32 38h-24c-68 0 -132 -39 -146 -116l-4 -22h-41c4 56 5 93 8 191l223 -3h166l260 3c3 -98 4 -135 8 -191h-41l-4 22c-2 14 -22 116 -146 116h-39c-35 0 -32 -10 -32 -38v-207c74 22 134 29 191 29
c217 0 229 -118 229 -203v-65c0 -57 -1 -85 82 -93l22 -2v-38c-23 0 -46 0 -69 1c-24 1 -49 2 -73 2h-80c-24 0 -49 -1 -73 -2c-18 -1 -36 -1 -54 -1v38l16 2c74 9 73 42 73 93v70c0 41 -1 145 -139 145c-48 0 -90 -12 -125 -26v-189c0 -87 29 -88 72 -93l17 -2v-38
c-18 0 -36 0 -54 1c-24 1 -49 2 -73 2h-80c-24 0 -49 -1 -73 -2c-23 -1 -46 -1 -69 -1z" />
    <glyph glyph-name="afii10145" unicode="&#x40f;" horiz-adv-x="862" 
d="M129 535c0 57 1 85 -82 93l-22 2v38c23 0 46 0 69 -1c24 -1 49 -2 73 -2h80c24 0 49 1 73 2c23 1 46 1 69 1v-38l-22 -2c-83 -8 -82 -36 -82 -93v-428c0 -62 23 -56 55 -56h182c32 0 55 -6 55 56v428c0 57 1 85 -82 93l-22 2v38c23 0 46 0 69 -1c24 -1 49 -2 73 -2h80
c24 0 49 1 73 2c23 1 46 1 69 1v-38l-22 -2c-83 -8 -82 -36 -82 -93v-404c0 -57 -1 -85 82 -93l22 -2v-38c-87 1 -116 2 -142 2h-242c0 -17 3 -36 14 -67c14 -39 31 -74 31 -112c0 -49 -31 -74 -67 -74s-67 25 -67 74c0 38 17 73 31 112c11 31 14 50 14 67h-242
c-26 0 -55 -1 -142 -2v38l22 2c83 8 82 36 82 93v404z" />
    <glyph glyph-name="afii10099" unicode="&#x452;" horiz-adv-x="614" 
d="M247 687v-152h195v-40h-195v-131c40 62 104 81 154 81c79 0 178 -46 178 -256c0 -123 -25 -467 -261 -467c-99 0 -136 39 -136 81c0 33 27 51 55 51c15 0 50 -4 59 -49c4 -19 8 -43 39 -43c104 0 95 215 95 332c0 97 8 280 -91 280c-34 0 -92 -18 -92 -141v-124
c0 -70 25 -75 48 -76l17 -1v-34c-29 1 -100 3 -132 3s-108 -2 -137 -3v34l17 1c32 2 53 12 53 76v386h-88v40h88v34c0 44 -39 52 -48 53l-22 3v32c78 6 144 18 197 30h7z" />
    <glyph glyph-name="quoteleft" unicode="&#x2018;" horiz-adv-x="288" 
d="M216 679l16 -26c-78 -42 -120 -89 -118 -154c16 14 35 18 50 18c42 0 71 -31 71 -77c0 -50 -40 -76 -87 -76c-54 0 -95 46 -95 113c0 60 30 149 163 202z" />
    <glyph glyph-name="quoteright" unicode="&#x2019;" horiz-adv-x="288" 
d="M72 364l-16 26c78 42 120 89 118 154c-16 -14 -35 -18 -50 -18c-42 0 -71 31 -71 77c0 50 40 76 87 76c54 0 95 -46 95 -113c0 -60 -30 -149 -163 -202z" />
    <glyph glyph-name="quotedblleft" unicode="&#x201c;" horiz-adv-x="521" 
d="M216 679l16 -26c-78 -42 -120 -89 -118 -154c16 14 35 18 50 18c42 0 71 -31 71 -77c0 -50 -40 -76 -87 -76c-54 0 -95 46 -95 113c0 60 30 149 163 202zM449 679l16 -26c-78 -42 -120 -89 -118 -154c16 14 35 18 50 18c42 0 71 -31 71 -77c0 -50 -40 -76 -87 -76
c-54 0 -95 46 -95 113c0 60 30 149 163 202z" />
    <glyph glyph-name="quotedblright" unicode="&#x201d;" horiz-adv-x="521" 
d="M72 364l-16 26c78 42 120 89 118 154c-16 -14 -35 -18 -50 -18c-42 0 -71 31 -71 77c0 50 40 76 87 76c54 0 95 -46 95 -113c0 -60 -30 -149 -163 -202zM305 364l-16 26c78 42 120 89 118 154c-16 -14 -35 -18 -50 -18c-42 0 -71 31 -71 77c0 50 40 76 87 76
c54 0 95 -46 95 -113c0 -60 -30 -149 -163 -202z" />
    <glyph glyph-name="bullet" unicode="&#x2022;" horiz-adv-x="598" 
d="M203 286c0 53 43 96 96 96s96 -43 96 -96s-43 -96 -96 -96s-96 43 -96 96z" />
    <glyph glyph-name="endash" unicode="&#x2013;" horiz-adv-x="544" 
d="M30 289h484v-76h-484v76z" />
    <glyph glyph-name="emdash" unicode="&#x2014;" horiz-adv-x="754" 
d="M751 217h-748v76h748v-76z" />
    <glyph glyph-name="Accent" horiz-adv-x="1" 
d="M-488 694l143 164c19 22 36 44 69 44c32 0 50 -23 50 -44c0 -32 -34 -54 -56 -67l-165 -97h-41z" />
    <glyph glyph-name="trademark" unicode="&#x2122;" horiz-adv-x="1027" 
d="M53 548h-33c4 41 4 67 5 120l153 -3h102l153 3c1 -54 1 -79 5 -120h-33c-7 74 -74 82 -100 82c-16 0 -24 -3 -24 -11v-247c0 -65 5 -71 43 -75l21 -2v-30c-16 0 -74 2 -116 2s-100 -2 -116 -2v30l21 2c38 4 43 10 43 75v247c0 8 -8 11 -24 11c-26 0 -93 -8 -100 -82z
M691 265l-127 289v-172c0 -55 6 -85 60 -87v-30c-46 1 -64 3 -90 2l-68 -2v30c61 7 59 34 59 65v240c0 21 -15 35 -46 37l-13 1v30c26 -2 64 -4 85 -3l69 3l121 -273l110 273l67 -3c24 -1 69 1 89 3v-30c-43 3 -59 -12 -59 -52v-249c0 -40 29 -40 46 -41l13 -1v-30
c-13 0 -27 1 -40 1c-11 0 -23 1 -34 1h-41h-37c-10 0 -21 -1 -31 -1c-12 0 -25 -1 -37 -1v30l16 2c14 2 43 -1 43 40v211l-120 -283h-35z" />
    <glyph glyph-name="afii10106" unicode="&#x459;" horiz-adv-x="799" 
d="M283 -2v34l17 1c31 2 53 10 53 76v256c0 18 2 28 -24 28h-54c-26 0 -29 -22 -30 -33c-3 -30 -4 -62 -11 -116c-12 -85 -37 -214 -124 -247c-12 -5 -26 -7 -39 -7c-36 0 -67 20 -67 51c0 32 24 49 48 49c27 0 36 -18 46 -24c3 -2 7 -3 10 -3c11 0 21 9 28 19
c6 8 42 59 54 203c5 65 2 112 -58 116l-17 1v34c51 -2 109 -3 156 -3h150c31 0 107 2 136 3v-34l-17 -1c-32 -2 -53 -12 -53 -76v-63c25 3 54 5 79 5c172 0 213 -73 213 -131c0 -63 -31 -138 -208 -138c-22 0 -43 0 -65 1c-29 1 -57 2 -86 2c-33 0 -108 -2 -137 -3zM487 223
v-107c0 -52 12 -78 65 -78c66 0 78 62 78 92c0 40 -16 97 -99 97c-9 0 -25 0 -44 -4z" />
    <glyph glyph-name="guilsinglright" unicode="&#x203a;" horiz-adv-x="275" 
d="M164 224l-9 11c-90 109 -85 129 -85 134c0 3 3 5 6 5c12 0 36 -27 95 -78c69 -60 84 -68 84 -72s-15 -12 -84 -72c-59 -51 -83 -78 -95 -78c-3 0 -6 2 -6 5c0 5 -5 25 85 134z" />
    <glyph glyph-name="afii10107" unicode="&#x45a;" horiz-adv-x="855" 
d="M329 -2v34l17 1c31 2 53 10 53 76v105h-170v-105c0 -70 25 -75 48 -76l17 -1v-34c-29 1 -100 3 -132 3s-108 -2 -137 -3v34l17 1c32 2 53 12 53 76v216c0 64 -21 74 -53 76l-17 1v34c29 -1 105 -3 137 -3s103 2 132 3v-34l-17 -1c-23 -1 -48 -6 -48 -76v-71h170v71
c0 64 -21 74 -53 76l-17 1v34c29 -1 105 -3 137 -3s108 2 137 3v-34l-17 -1c-32 -2 -53 -12 -53 -76v-63c25 3 54 5 79 5c172 0 213 -73 213 -131c0 -63 -31 -138 -208 -138c-22 0 -43 0 -65 1c-29 1 -57 2 -86 2c-33 0 -108 -2 -137 -3zM533 223v-107c0 -52 12 -78 65 -78
c66 0 78 62 78 92c0 40 -16 97 -99 97c-9 0 -25 0 -44 -4z" />
    <glyph glyph-name="afii10109" unicode="&#x45c;" horiz-adv-x="582" 
d="M223 209v-100c0 -28 -1 -73 49 -76l15 -1v-34c-43 2 -93 3 -131 3s-88 -1 -131 -3v34l15 1c50 3 49 48 49 76v216c0 28 1 73 -49 76l-15 1v34c43 -2 93 -3 131 -3s88 1 131 3v-34l-15 -1c-50 -3 -49 -48 -49 -76v-76h28c65 0 82 67 110 123c16 31 45 73 106 73
c48 0 67 -28 67 -54c0 -27 -19 -49 -50 -49s-35 21 -57 21c-41 0 -43 -86 -105 -127v-3l8 -2c81 -20 107 -97 147 -148c9 -11 21 -24 40 -24c16 0 26 9 34 27l36 -15c-29 -73 -87 -81 -126 -81c-38 0 -86 8 -121 89l-35 80c-12 27 -24 50 -57 50h-25zM255 513l108 137
c10 13 25 36 49 36c26 0 40 -18 40 -38s-25 -35 -42 -47l-124 -88h-31z" />
    <glyph glyph-name="afii10108" unicode="&#x45b;" horiz-adv-x="637" 
d="M247 687v-152h195v-40h-195v-131c46 72 118 81 154 81c136 0 141 -108 141 -137v-198c0 -66 21 -75 53 -77l17 -1v-34c-29 1 -105 3 -137 3s-103 -2 -132 -3v34l17 1c23 1 48 6 48 76v157c0 48 -6 108 -69 108c-33 0 -92 -18 -92 -141v-124c0 -70 25 -75 48 -76l17 -1
v-34c-29 1 -100 3 -132 3s-108 -2 -137 -3v34l17 1c32 2 53 12 53 76v386h-88v40h88v34c0 44 -39 52 -48 53l-22 3v32c78 6 144 18 197 30h7z" />
    <glyph glyph-name="afii10193" unicode="&#x45f;" horiz-adv-x="614" 
d="M25 32l17 1c32 2 53 12 53 76v216c0 64 -21 74 -53 76l-17 1v34c28 -1 105 -3 137 -3c31 0 99 2 127 3v-34l-12 -1c-23 -2 -48 -5 -48 -76v-246c0 -31 5 -38 38 -38h80c33 0 38 7 38 38v246c0 71 -25 74 -48 76l-12 1v34c28 -1 96 -3 127 -3c32 0 109 2 137 3v-34l-17 -1
c-32 -2 -53 -12 -53 -76v-216c0 -64 21 -74 53 -76l17 -1v-34c-29 1 -105 3 -137 3h-125l2 -13c6 -40 40 -85 40 -126c0 -31 -19 -62 -62 -62s-62 31 -62 62c0 41 34 86 40 126l2 13h-125c-32 0 -108 -2 -137 -3v34z" />
    <glyph glyph-name="afii10062" unicode="&#x40e;" horiz-adv-x="661" 
d="M323 630l-16 -2c-28 -3 -61 -4 -61 -38c0 -15 10 -41 18 -55l129 -227c109 212 131 252 131 280c0 20 -17 46 -75 42v38c29 -2 71 -4 104 -3l123 3v-38c-61 -5 -84 -56 -169 -221l-104 -203c-56 -109 -105 -222 -224 -222c-59 0 -87 34 -87 70c0 39 31 66 72 66
c22 0 36 -11 45 -19c13 -10 24 -23 37 -23c25 0 42 35 55 59l15 28l-221 390c-25 44 -58 68 -100 75v38c43 -2 111 -4 160 -3l168 3v-38zM365 712c-126 0 -191 59 -191 108c0 35 22 66 59 66c31 0 56 -20 56 -46c0 -7 -3 -15 -7 -21c-5 -7 -13 -13 -13 -21
c0 -19 35 -47 96 -47s96 28 96 47c0 8 -8 14 -13 21c-4 6 -7 14 -7 21c0 26 25 46 56 46c37 0 59 -31 59 -66c0 -49 -65 -108 -191 -108z" />
    <glyph glyph-name="afii10110" unicode="&#x45e;" horiz-adv-x="492" 
d="M223 -11l-150 342c-14 32 -25 65 -73 71v34c63 -1 103 -3 137 -3c22 0 40 1 124 3v-34h-11c-36 0 -45 -12 -45 -29c0 -16 8 -35 20 -65l69 -169l61 142c15 35 24 57 24 82c0 37 -38 40 -56 39v34c63 -2 75 -3 93 -3c14 0 28 1 81 3v-34c-61 -9 -72 -70 -108 -149
l-182 -399c-25 -54 -53 -131 -124 -131c-33 0 -58 21 -58 54c0 35 26 49 44 55c49 16 85 -1 144 134zM262 500c-110 0 -169 58 -169 118c0 9 3 52 53 52c35 0 51 -19 51 -41c0 -14 -7 -23 -11 -28c-4 -6 -9 -12 -9 -22c0 -22 26 -45 85 -45s85 23 85 45c0 10 -5 16 -9 22
c-4 5 -11 14 -11 28c0 22 16 41 51 41c50 0 53 -43 53 -52c0 -60 -59 -118 -169 -118z" />
    <glyph glyph-name="afii10057" unicode="&#x408;" horiz-adv-x="422" 
d="M30 630v38c23 0 46 0 69 -1c24 -1 49 -2 73 -2h80c24 0 49 1 73 2c23 1 46 1 69 1v-38l-22 -2c-83 -8 -82 -36 -82 -93v-526c0 -101 -9 -181 -82 -233c-50 -36 -103 -42 -147 -42c-125 0 -160 61 -160 99c0 33 24 57 56 57c43 0 60 -38 68 -63c5 -16 13 -45 47 -45
c37 0 47 31 52 55c7 37 10 102 10 137v561c0 57 1 85 -82 93z" />
    <glyph glyph-name="currency" unicode="&#xa4;" horiz-adv-x="666" 
d="M31 92l101 101c-47 59 -52 123 -52 152c0 43 12 98 49 149l-99 99l51 51l99 -98c46 34 100 51 152 51c41 0 99 -10 152 -52l101 100l51 -51l-101 -101c38 -49 49 -104 49 -148c0 -52 -17 -106 -51 -152l101 -101l-51 -51l-101 102c-16 -12 -70 -50 -150 -50
c-43 0 -98 12 -149 49l-101 -101zM196 347c0 -79 59 -139 136 -139s137 62 137 137c0 76 -61 137 -137 137c-61 0 -136 -45 -136 -135z" />
    <glyph glyph-name="afii10050" unicode="&#x490;" horiz-adv-x="615" 
d="M605 803v-188h-272c-37 0 -40 -38 -40 -73v-411c0 -57 -1 -85 88 -93l22 -2v-38c-24 0 -48 0 -72 1c-25 1 -51 2 -76 2h-80c-24 0 -49 -1 -73 -2c-23 -1 -46 -1 -69 -1v38l22 2c83 8 82 36 82 93v404c0 57 1 85 -82 93l-22 2v38c23 0 46 0 69 -1c24 -1 49 -2 73 -2h219
c48 0 153 6 166 107l4 31h41z" />
    <glyph glyph-name="brokenbar" unicode="&#xa6;" horiz-adv-x="501" 
d="M200 118h101v-285h-101v285zM200 666h101v-285h-101v285z" />
    <glyph glyph-name="section" unicode="&#xa7;" 
d="M302 21l-100 52c-90 47 -144 105 -144 185c0 72 51 113 88 132c-11 9 -66 55 -66 134c0 78 57 155 190 155c130 0 175 -64 175 -114c0 -41 -31 -65 -60 -65s-60 23 -60 54c0 8 2 18 10 29c8 14 17 19 17 27c0 11 -22 33 -82 33c-81 0 -118 -37 -118 -78
c0 -62 62 -92 139 -133c95 -50 187 -97 187 -206c0 -71 -50 -118 -76 -138c64 -51 67 -117 67 -135c0 -83 -60 -172 -208 -172c-156 0 -206 82 -206 139c0 37 27 70 66 70c36 0 61 -26 61 -60c0 -15 -6 -25 -20 -40c-7 -7 -16 -17 -16 -29c0 -21 38 -44 112 -44
c107 0 138 53 138 94c0 50 -37 80 -94 110zM214 204l11 -6c85 -47 123 -70 148 -87c28 25 45 44 45 75c0 27 -15 47 -79 86c-73 44 -95 46 -161 94c-15 -6 -60 -28 -60 -65c0 -41 58 -76 96 -97z" />
    <glyph glyph-name="afii10023" unicode="&#x401;" horiz-adv-x="666" 
d="M288 567v-201h25c63 0 115 38 114 112h39l-3 -135l3 -135h-39c1 74 -51 112 -114 112h-25v-132c0 -124 37 -143 123 -143c53 0 166 12 178 148h39c-4 -34 -8 -85 -6 -133l2 -62l-454 3c-52 0 -3 -2 -142 -3v38l22 2c83 8 82 36 82 93v404c0 57 1 85 -82 93l-22 2v38
c138 -1 93 -3 142 -3l412 3c3 -91 4 -125 8 -177h-43c-14 124 -124 128 -192 128h-22c-46 0 -45 -3 -45 -52zM366 787c0 39 31 70 70 70s70 -31 70 -70s-31 -70 -70 -70s-70 31 -70 70zM132 787c0 39 31 70 70 70s70 -31 70 -70s-31 -70 -70 -70s-70 31 -70 70z" />
    <glyph glyph-name="copyright" unicode="&#xa9;" horiz-adv-x="805" 
d="M0 334c0 192 156 345 347 345c193 0 347 -154 347 -345s-154 -347 -347 -347c-192 0 -347 155 -347 347zM42 334c0 -168 137 -305 305 -305c169 0 305 138 305 305s-137 303 -305 303c-167 0 -305 -135 -305 -303zM493 523v-121h-18c-17 54 -61 89 -103 89
c-51 0 -99 -47 -99 -157c0 -120 47 -155 96 -155c51 0 93 43 107 59l19 -18c-55 -66 -115 -74 -145 -74c-108 0 -190 74 -190 181c0 110 82 194 187 194c34 0 62 -11 85 -19c5 -2 36 -13 42 21h19z" />
    <glyph glyph-name="afii10053" unicode="&#x404;" horiz-adv-x="676" 
d="M636 461h-45c-20 86 -85 169 -192 169c-155 0 -196 -161 -196 -254c27 17 69 34 103 34c18 0 36 -4 53 -11c29 -12 60 -38 93 -38c28 0 74 13 98 25l20 -35c-43 -27 -99 -65 -149 -66c-23 0 -45 7 -66 17c-27 13 -56 32 -105 32c-16 0 -31 -3 -47 -9v-22
c5 -257 169 -267 209 -267c36 0 107 17 107 58c0 7 -2 13 -4 20c-3 9 -5 19 -5 28c0 34 25 65 72 65c25 0 69 -12 69 -67c0 -73 -81 -120 -141 -138c-43 -13 -87 -15 -118 -15c-236 0 -367 144 -367 341c0 226 175 351 357 351c39 0 109 -6 186 -63l15 58h44z" />
    <glyph glyph-name="guillemotleft" unicode="&#xab;" horiz-adv-x="442" 
d="M111 224l9 -11c90 -109 85 -129 85 -134c0 -3 -3 -5 -6 -5c-12 0 -36 27 -95 78c-69 60 -84 68 -84 72s15 12 84 72c59 51 83 78 95 78c3 0 6 -2 6 -5c0 -5 5 -25 -85 -134zM278 224l9 -11c90 -109 85 -129 85 -134c0 -3 -3 -5 -6 -5c-12 0 -36 27 -95 78
c-69 60 -84 68 -84 72s15 12 84 72c59 51 83 78 95 78c3 0 6 -2 6 -5c0 -5 5 -25 -85 -134z" />
    <glyph glyph-name="logicalnot" unicode="&#xac;" horiz-adv-x="500" 
d="M277 0v197h-277v70h441v-267h-164z" />
    <glyph glyph-name="hyphen" unicode="-" horiz-adv-x="240" 
d="M230 185h-220v108h220v-108z" />
    <glyph glyph-name="hyphen" unicode="&#xad;" horiz-adv-x="240" 
d="M230 185h-220v108h220v-108z" />
    <glyph glyph-name="registered" unicode="&#xae;" horiz-adv-x="805" 
d="M0 334c0 192 156 345 347 345c193 0 347 -154 347 -345s-154 -347 -347 -347c-192 0 -347 155 -347 347zM42 334c0 -168 137 -305 305 -305c169 0 305 138 305 305s-137 303 -305 303c-167 0 -305 -135 -305 -303zM159 516h188c55 0 163 -3 163 -100
c0 -50 -35 -81 -72 -92l82 -130c5 -7 16 -24 43 -24v-19h-119l-100 174h-37v-116c0 -27 8 -38 33 -38h17v-20h-195v20h18c22 0 30 18 30 38v249c0 27 -8 38 -33 38h-18v20zM307 345h27c44 0 76 21 76 71c0 71 -66 72 -83 72h-20v-143z" />
    <glyph glyph-name="afii10056" unicode="&#x407;" horiz-adv-x="420" 
d="M28 630v38c23 0 46 0 69 -1c24 -1 49 -2 73 -2h80c24 0 49 1 73 2c23 1 46 1 69 1v-38l-22 -2c-83 -8 -82 -36 -82 -93v-404c0 -57 -1 -85 82 -93l22 -2v-38c-23 0 -46 0 -69 1c-24 1 -49 2 -73 2h-80c-24 0 -49 -1 -73 -2c-23 -1 -46 -1 -69 -1v38l22 2
c83 8 82 36 82 93v404c0 57 1 85 -82 93zM32 785c0 42 34 76 76 76s76 -34 76 -76s-34 -76 -76 -76s-76 34 -76 76zM236 785c0 42 34 76 76 76s76 -34 76 -76s-34 -76 -76 -76s-76 34 -76 76z" />
    <glyph glyph-name="degree" unicode="&#xb0;" horiz-adv-x="352" 
d="M60 597c0 63 53 116 116 116s116 -53 116 -116s-53 -116 -116 -116s-116 53 -116 116zM118 597c0 -32 26 -58 58 -58s58 26 58 58s-26 58 -58 58s-58 -26 -58 -58z" />
    <glyph glyph-name="plusminus" unicode="&#xb1;" horiz-adv-x="544" 
d="M30 403h202v200h79v-200h203v-77h-203v-192h-79v192h-202v77zM30 93h484v-76h-484v76z" />
    <glyph glyph-name="afii10055" unicode="&#x406;" horiz-adv-x="420" 
d="M28 630v38c23 0 46 0 69 -1c24 -1 49 -2 73 -2h80c24 0 49 1 73 2c23 1 46 1 69 1v-38l-22 -2c-83 -8 -82 -36 -82 -93v-404c0 -57 -1 -85 82 -93l22 -2v-38c-23 0 -46 0 -69 1c-24 1 -49 2 -73 2h-80c-24 0 -49 -1 -73 -2c-23 -1 -46 -1 -69 -1v38l22 2
c83 8 82 36 82 93v404c0 57 1 85 -82 93z" />
    <glyph glyph-name="afii10103" unicode="&#x456;" horiz-adv-x="324" 
d="M229 448v-339c0 -64 21 -74 53 -76l17 -1v-34c-29 1 -105 3 -137 3s-108 -2 -137 -3v34l17 1c32 2 53 12 53 76v187c0 26 4 84 -70 86v34c100 10 154 21 198 32h6zM77 620c0 42 34 76 76 76s76 -34 76 -76s-34 -76 -76 -76s-76 34 -76 76z" />
    <glyph glyph-name="afii10098" unicode="&#x491;" horiz-adv-x="457" 
d="M25 402v34c67 -3 94 -2 143 -2h117c69 0 119 35 124 91l2 22h36v-154h-186c-33 0 -32 -13 -32 -27v-257c0 -29 -2 -72 61 -76l17 -1v-34c-30 1 -111 3 -145 3c-33 0 -107 -2 -137 -3v34l17 1c32 2 53 12 53 76v216c0 64 -21 74 -53 76z" />
    <glyph glyph-name="mu" unicode="&#xb5;" horiz-adv-x="543" 
d="M464 436v-310c0 -27 0 -67 38 -67c6 0 16 2 22 3l9 2v-30l-130 -42c-3 -1 -7 -2 -10 -2c-16 0 -38 19 -52 61l-2 6c-43 -50 -85 -67 -125 -67c-63 0 -95 44 -108 84c2 -66 18 -105 26 -131c13 -41 18 -63 18 -82c0 -36 -28 -58 -64 -58c-37 0 -66 20 -66 62
c0 16 4 44 9 62c21 80 31 247 31 314v195h134v-267c0 -61 10 -117 57 -117c37 0 69 40 79 53v331h134z" />
    <glyph glyph-name="mu" unicode="&#x3bc;" horiz-adv-x="543" 
d="M464 436v-310c0 -27 0 -67 38 -67c6 0 16 2 22 3l9 2v-30l-130 -42c-3 -1 -7 -2 -10 -2c-16 0 -38 19 -52 61l-2 6c-43 -50 -85 -67 -125 -67c-63 0 -95 44 -108 84c2 -66 18 -105 26 -131c13 -41 18 -63 18 -82c0 -36 -28 -58 -64 -58c-37 0 -66 20 -66 62
c0 16 4 44 9 62c21 80 31 247 31 314v195h134v-267c0 -61 10 -117 57 -117c37 0 69 40 79 53v331h134z" />
    <glyph glyph-name="paragraph" unicode="&#xb6;" horiz-adv-x="546" 
d="M429 536v-563c0 -100 1 -137 86 -137h10v-36h-180v819h-48v-819h-190v36h15c83 0 91 18 91 138v338h-11c-104 0 -178 66 -178 171c0 71 36 185 221 185c55 0 109 -3 164 -3c39 0 77 1 116 3v-36l-18 -1c-52 -3 -78 -22 -78 -95z" />
    <glyph glyph-name="periodcentered" unicode="&#xb7;" horiz-adv-x="250" 
d="M43 224c0 45 37 82 82 82s82 -37 82 -82s-37 -82 -82 -82s-82 37 -82 82z" />
    <glyph glyph-name="periodcentered" unicode="&#x2219;" horiz-adv-x="250" 
d="M43 224c0 45 37 82 82 82s82 -37 82 -82s-37 -82 -82 -82s-82 37 -82 82z" />
    <glyph glyph-name="afii10071" unicode="&#x451;" horiz-adv-x="526" 
d="M447 114l33 -26c-49 -71 -124 -98 -202 -98c-128 0 -236 88 -236 222c0 138 107 233 241 233c139 0 203 -97 203 -182c0 -19 -3 -26 -25 -26h-270v-22c0 -126 71 -166 133 -166c21 0 72 3 123 65zM192 280h126c18 0 38 -2 38 25c0 47 -29 100 -76 100
c-46 0 -87 -44 -88 -125zM134 602c0 32 26 58 58 58s58 -26 58 -58s-26 -58 -58 -58s-58 26 -58 58zM309 602c0 32 26 58 58 58s58 -26 58 -58s-26 -58 -58 -58s-58 26 -58 58z" />
    <glyph glyph-name="afii61352" unicode="&#x2116;" horiz-adv-x="1196" 
d="M705 -16l-433 525v-324c0 -133 -34 -198 -145 -198c-93 0 -117 56 -117 86c0 39 27 61 55 61c23 0 47 -14 55 -48c6 -22 8 -50 40 -50c65 0 62 118 62 192v336c-20 36 -54 65 -102 66v38c78 -2 83 -3 104 -3c20 0 35 1 108 3l373 -426v240c0 116 24 197 137 197
c90 0 125 -47 125 -86s-28 -61 -55 -61c-23 0 -47 14 -55 48c-6 22 -8 50 -40 50c-65 0 -62 -118 -62 -191v-455h-50zM1163 305c0 -98 -85 -160 -175 -160c-110 0 -171 87 -171 161c0 93 86 158 173 158c90 0 173 -65 173 -159zM1059 298c0 66 -5 138 -68 138
c-61 0 -70 -67 -70 -129c0 -65 9 -134 70 -134c58 0 68 63 68 125zM1144 0h-307v64h307v-64z" />
    <glyph glyph-name="afii10101" unicode="&#x454;" horiz-adv-x="493" 
d="M430 306h-37c-9 61 -54 99 -105 99c-88 0 -112 -95 -109 -162c16 15 41 27 61 27c22 0 41 -12 57 -22c12 -7 26 -14 40 -14c12 0 37 8 53 14l15 -27c-59 -37 -88 -37 -94 -37c-12 0 -25 4 -36 10c-19 10 -34 24 -55 24c-10 0 -29 -6 -41 -12c-2 -140 64 -176 116 -176
c33 0 67 16 67 39c0 5 -2 10 -4 15c-2 6 -5 13 -5 19c0 21 17 44 49 44s53 -23 53 -51c0 -38 -48 -106 -179 -106c-156 0 -246 120 -246 231c0 127 103 224 240 224c42 0 82 -9 118 -26l21 26h21v-139z" />
    <glyph glyph-name="guillemotright" unicode="&#xbb;" horiz-adv-x="442" 
d="M331 224l-9 11c-90 109 -85 129 -85 134c0 3 3 5 6 5c12 0 36 -27 95 -78c69 -60 84 -68 84 -72s-15 -12 -84 -72c-59 -51 -83 -78 -95 -78c-3 0 -6 2 -6 5c0 5 -5 25 85 134zM164 224l-9 11c-90 109 -85 129 -85 134c0 3 3 5 6 5c12 0 36 -27 95 -78
c69 -60 84 -68 84 -72s-15 -12 -84 -72c-59 -51 -83 -78 -95 -78c-3 0 -6 2 -6 5c0 5 -5 25 85 134z" />
    <glyph glyph-name="afii10105" unicode="&#x458;" horiz-adv-x="318" 
d="M229 448v-483c0 -81 -12 -243 -200 -243c-113 0 -136 43 -136 77c0 31 24 55 55 55c17 0 51 -8 59 -48c4 -17 8 -44 39 -44c48 0 49 65 49 109v425c0 41 4 78 -70 87v34c86 6 151 19 198 31h6zM77 620c0 42 34 76 76 76s76 -34 76 -76s-34 -76 -76 -76s-76 34 -76 76z
" />
    <glyph glyph-name="afii10054" unicode="&#x405;" horiz-adv-x="556" 
d="M478 487h-46c-20 91 -86 146 -161 146c-64 0 -101 -40 -101 -83c0 -91 112 -105 211 -160c70 -39 135 -90 135 -191c0 -122 -97 -212 -242 -212c-45 0 -114 10 -175 69l-14 -56h-45l1 113l-1 98h45c19 -76 78 -178 184 -178c77 0 115 55 115 108c0 71 -58 96 -143 135
c-97 45 -191 86 -191 212c0 100 70 191 220 191c48 0 99 -11 146 -49l13 40h43c0 -45 1 -94 6 -183z" />
    <glyph glyph-name="afii10102" unicode="&#x455;" horiz-adv-x="453" 
d="M380 314h-37c-20 50 -62 91 -121 91c-47 0 -68 -27 -68 -51c0 -42 49 -52 95 -67c66 -22 154 -49 159 -148c3 -57 -32 -149 -183 -149c-37 0 -83 6 -126 41l-18 -41h-36v149h32c20 -47 67 -109 139 -109c52 0 79 29 79 57c0 45 -54 58 -97 73c-68 23 -152 50 -152 152
c0 76 58 133 160 133c34 0 76 -6 120 -33l17 33h37v-131z" />
    <glyph glyph-name="afii10104" unicode="&#x457;" horiz-adv-x="323" 
d="M25 402v34c29 -1 105 -3 137 -3s108 2 137 3v-34l-17 -1c-32 -2 -53 -12 -53 -76v-216c0 -64 21 -74 53 -76l17 -1v-34c-29 1 -105 3 -137 3s-108 -2 -137 -3v34l17 1c32 2 53 12 53 76v216c0 64 -21 74 -53 76zM20 599c0 32 26 58 58 58s58 -26 58 -58s-26 -58 -58 -58
s-58 26 -58 58zM187 599c0 32 26 58 58 58s58 -26 58 -58s-26 -58 -58 -58s-58 26 -58 58z" />
    <glyph glyph-name="afii10017" unicode="&#x410;" horiz-adv-x="675" 
d="M174 205l-10 -24c-12 -30 -26 -56 -26 -85c0 -45 26 -50 60 -56l24 -4v-38l-141 3c-39 1 -80 -1 -103 -3v38c81 15 101 70 131 142l209 501h49l217 -541c21 -53 37 -99 113 -102v-38c-32 1 -85 3 -118 3h-64h-56c-30 0 -76 -2 -104 -3v38l26 3c22 3 58 4 58 39
c0 17 -3 40 -28 97l-13 30h-224zM193 253h187l-91 237z" />
    <glyph glyph-name="afii10018" unicode="&#x411;" horiz-adv-x="696" 
d="M28 630v38c23 0 46 -1 69 -1c33 -1 66 -2 99 -2h63l348 3c3 -98 4 -135 8 -191h-41l-5 27c-19 104 -120 111 -162 111h-79c-38 0 -40 -36 -40 -79v-148c25 3 45 4 69 4c65 0 169 -5 236 -64c41 -37 63 -88 63 -136c0 -182 -207 -194 -309 -194c-24 0 -47 0 -71 1
c-29 1 -57 2 -86 2c-31 0 -62 -1 -93 -2c-23 -1 -46 -1 -69 -1v38l22 2c83 8 82 36 82 93v404c0 57 1 85 -82 93zM288 340v-210c0 -51 22 -82 70 -82c58 0 122 39 122 152c0 59 -19 142 -153 142c-13 0 -26 0 -39 -2z" />
    <glyph glyph-name="afii10019" unicode="&#x412;" horiz-adv-x="697" 
d="M132 131v404c0 57 1 85 -82 93l-22 2v38c105 -1 72 -2 146 -3c59 -1 119 3 178 3c56 0 166 0 224 -63c22 -24 37 -57 37 -91c0 -70 -54 -139 -174 -156c96 -5 220 -57 220 -177c0 -41 -17 -82 -45 -111c-89 -94 -281 -70 -421 -69c-54 0 -127 -2 -165 -3v38l22 2
c83 8 82 36 82 93zM288 373h32c35 0 128 2 128 126c0 79 -46 123 -117 123h-20c-24 0 -23 -10 -23 -28v-221zM288 327v-196c0 -14 2 -83 83 -83c24 0 112 6 112 132c0 38 -3 147 -150 147h-45z" />
    <glyph glyph-name="afii10020" unicode="&#x413;" horiz-adv-x="629" 
d="M288 577v-446c0 -57 -1 -85 88 -93l22 -2v-38c-24 0 -48 0 -72 1c-25 1 -51 2 -76 2h-80c-24 0 -49 -1 -73 -2c-23 -1 -46 -1 -69 -1v38l22 2c83 8 82 36 82 93v404c0 57 1 85 -82 93l-22 2v38c23 0 46 0 69 -1c24 -1 49 -2 73 -2h225l197 3c4 -98 6 -135 12 -191h-41
l-6 25c-26 108 -105 113 -168 113h-72c-25 0 -29 1 -29 -38z" />
    <glyph glyph-name="afii10021" unicode="&#x414;" horiz-adv-x="753" 
d="M721 49v-240h-42c-30 174 -101 191 -193 191h-235c-81 0 -169 1 -202 -191h-42v240h35c25 0 35 2 54 21c30 30 67 96 88 145c29 69 55 165 55 289c0 85 -28 116 -94 124l-17 2v38c119 -2 146 -3 168 -3h287c24 0 49 1 73 2c23 1 46 1 69 1v-38l-22 -2
c-83 -8 -82 -36 -82 -93v-445c0 -32 7 -41 38 -41h62zM465 99v492c0 27 -11 28 -25 28h-99c-33 0 -37 -17 -38 -30l-5 -90c-10 -187 -51 -284 -85 -351c-34 -69 -52 -80 -52 -90c0 -8 9 -9 18 -9h248c23 0 38 4 38 50z" />
    <glyph glyph-name="afii10022" unicode="&#x415;" horiz-adv-x="666" 
d="M288 567v-201h25c63 0 115 38 114 112h39l-3 -135l3 -135h-39c1 74 -51 112 -114 112h-25v-132c0 -124 37 -143 123 -143c53 0 166 12 178 148h39c-4 -34 -8 -85 -6 -133l2 -62l-454 3c-52 0 -3 -2 -142 -3v38l22 2c83 8 82 36 82 93v404c0 57 1 85 -82 93l-22 2v38
c138 -1 93 -3 142 -3l412 3c3 -91 4 -125 8 -177h-43c-14 124 -124 128 -192 128h-22c-46 0 -45 -3 -45 -52z" />
    <glyph glyph-name="afii10024" unicode="&#x416;" horiz-adv-x="1132" 
d="M644 323v-192c0 -57 -1 -85 82 -93l22 -2v-38c-23 0 -46 0 -69 1c-24 1 -49 2 -73 2h-80c-24 0 -49 -1 -73 -2c-23 -1 -46 -1 -69 -1v38l22 2c83 8 82 36 82 93v192h-31c-40 0 -77 -12 -106 -90l-37 -98c-41 -108 -81 -148 -165 -148c-39 0 -117 4 -152 96l38 17
c10 -18 20 -30 36 -30c31 0 56 41 71 67c41 73 86 181 203 213v3c-25 13 -44 33 -68 84c-19 39 -42 133 -86 133c-11 0 -23 -9 -32 -15c-9 -5 -22 -13 -43 -13c-42 0 -71 29 -71 63c0 31 21 74 87 74c94 0 136 -74 160 -129c37 -87 51 -177 148 -177h48v162
c0 57 1 85 -82 93l-22 2v38c23 0 46 0 69 -1c24 -1 49 -2 73 -2h80c24 0 49 1 73 2c23 1 46 1 69 1v-38l-22 -2c-83 -8 -82 -36 -82 -93v-162h48c97 0 111 90 148 177c24 55 66 129 160 129c66 0 87 -43 87 -74c0 -34 -29 -63 -71 -63c-21 0 -34 8 -43 13
c-9 6 -21 15 -32 15c-44 0 -67 -94 -86 -133c-24 -51 -43 -71 -68 -84v-3c117 -32 162 -140 203 -213c15 -26 40 -67 71 -67c16 0 26 12 36 30l38 -17c-33 -88 -106 -96 -139 -96c-123 0 -154 86 -178 148l-37 98c-29 78 -66 90 -106 90h-31z" />
    <glyph glyph-name="afii10025" unicode="&#x417;" horiz-adv-x="640" 
d="M137 464h-48c3 93 3 157 3 204h49l12 -38c46 33 97 49 166 49c174 0 242 -94 242 -174c0 -73 -59 -135 -153 -149v-3c130 -1 194 -81 194 -166c0 -112 -123 -200 -304 -200c-172 0 -256 75 -256 143c0 43 28 74 69 74c52 0 74 -36 74 -69c0 -9 -2 -18 -5 -27
c-2 -6 -4 -12 -4 -18c0 -33 52 -55 100 -55c71 0 148 42 148 147c0 76 -33 147 -138 147h-60v46h54c77 0 116 50 116 125c0 91 -52 133 -112 133c-61 0 -131 -45 -147 -169z" />
    <glyph glyph-name="afii10026" unicode="&#x418;" horiz-adv-x="894" 
d="M28 630v38c23 0 46 0 69 -1c24 -1 49 -2 73 -2h80c24 0 49 1 73 2c23 1 46 1 69 1v-38l-22 -2c-83 -8 -82 -36 -82 -93v-332l318 332v8c0 78 -33 81 -82 85l-22 2v38c23 0 46 0 69 -1c24 -1 49 -2 73 -2h80c24 0 49 1 73 2c23 1 46 1 69 1v-38l-22 -2
c-83 -8 -82 -36 -82 -93v-404c0 -57 -1 -85 82 -93l22 -2v-38c-23 0 -46 0 -69 1c-24 1 -49 2 -73 2h-80c-24 0 -49 -1 -73 -2c-23 -1 -46 -1 -69 -1v38l22 2c83 8 82 36 82 93v331l-318 -331v-12c0 -73 33 -77 82 -81l22 -2v-38c-23 0 -46 0 -69 1c-24 1 -49 2 -73 2h-80
c-24 0 -49 -1 -73 -2c-23 -1 -46 -1 -69 -1v38l22 2c83 8 82 36 82 93v404c0 57 1 85 -82 93z" />
    <glyph glyph-name="afii10027" unicode="&#x419;" horiz-adv-x="894" 
d="M28 630v38c23 0 46 0 69 -1c24 -1 49 -2 73 -2h80c24 0 49 1 73 2c23 1 46 1 69 1v-38l-22 -2c-83 -8 -82 -36 -82 -93v-332l318 332v8c0 78 -33 81 -82 85l-22 2v38c23 0 46 0 69 -1c24 -1 49 -2 73 -2h80c24 0 49 1 73 2c23 1 46 1 69 1v-38l-22 -2
c-83 -8 -82 -36 -82 -93v-404c0 -57 -1 -85 82 -93l22 -2v-38c-23 0 -46 0 -69 1c-24 1 -49 2 -73 2h-80c-24 0 -49 -1 -73 -2c-23 -1 -46 -1 -69 -1v38l22 2c83 8 82 36 82 93v331l-318 -331v-12c0 -73 33 -77 82 -81l22 -2v-38c-23 0 -46 0 -69 1c-24 1 -49 2 -73 2h-80
c-24 0 -49 -1 -73 -2c-23 -1 -46 -1 -69 -1v38l22 2c83 8 82 36 82 93v404c0 57 1 85 -82 93zM447 712c-126 0 -191 59 -191 108c0 35 22 66 59 66c31 0 56 -20 56 -46c0 -7 -3 -15 -7 -21c-5 -7 -13 -13 -13 -21c0 -19 35 -47 96 -47s96 28 96 47c0 8 -8 14 -13 21
c-4 6 -7 14 -7 21c0 26 25 46 56 46c37 0 59 -31 59 -66c0 -49 -65 -108 -191 -108z" />
    <glyph glyph-name="afii10028" unicode="&#x41a;" horiz-adv-x="790" 
d="M288 373h48c85 0 106 60 137 139c29 72 69 167 180 167c62 0 86 -35 86 -74c0 -43 -35 -63 -68 -63c-15 0 -26 5 -35 9c-15 8 -27 19 -41 19c-37 0 -55 -56 -70 -92c-37 -89 -64 -111 -89 -123v-3c73 -16 131 -68 211 -214c11 -21 35 -68 69 -68c19 0 29 13 39 30l38 -17
c-33 -88 -106 -96 -139 -96c-127 0 -160 85 -185 148l-39 98c-31 78 -64 90 -106 90h-36v-192c0 -57 -1 -85 82 -93l22 -2v-38c-23 0 -46 0 -69 1c-24 1 -49 2 -73 2h-80c-24 0 -49 -1 -73 -2c-23 -1 -46 -1 -69 -1v38l22 2c83 8 82 36 82 93v404c0 57 1 85 -82 93l-22 2v38
c23 0 46 0 69 -1c24 -1 49 -2 73 -2h80c24 0 49 1 73 2c23 1 46 1 69 1v-38l-22 -2c-83 -8 -82 -36 -82 -93v-162z" />
    <glyph glyph-name="afii10029" unicode="&#x41b;" horiz-adv-x="785" 
d="M653 535v-404c0 -57 -1 -85 82 -93l22 -2v-38c-23 0 -46 0 -69 1c-24 1 -49 2 -73 2h-80c-24 0 -49 -1 -73 -2c-23 -1 -46 -1 -69 -1v38l22 2c83 8 82 36 82 93v460c0 27 -11 28 -25 28h-92c-34 0 -37 -20 -38 -30l-5 -90c-10 -173 -46 -364 -140 -458
c-45 -45 -91 -54 -122 -54c-60 0 -83 40 -83 70s23 60 64 60c25 0 39 -12 47 -18c10 -7 21 -16 32 -16c7 0 30 2 61 58c32 57 63 127 77 299c11 136 -11 179 -91 188l-17 2v38c116 -2 141 -3 163 -3h287c24 0 49 1 73 2c23 1 46 1 69 1v-38l-22 -2c-83 -8 -82 -36 -82 -93z
" />
    <glyph glyph-name="afii10030" unicode="&#x41c;" horiz-adv-x="937" 
d="M396 -2l-214 515v-360c0 -44 -1 -102 83 -114l21 -3v-38c-52 1 -87 3 -114 3h-33c-27 0 -60 -2 -111 -3v38l21 3c84 12 83 70 83 114v436c-16 27 -39 35 -82 39l-22 2v38c78 -2 118 -4 158 -3l88 3l200 -471l17 42c58 143 105 260 165 429l106 -3c35 -1 75 2 147 3v-38
l-22 -2c-83 -8 -82 -36 -82 -93v-404c0 -57 -1 -85 82 -93l22 -2v-38c-23 0 -46 0 -69 1c-24 1 -49 2 -73 2h-80c-24 0 -49 -1 -73 -2c-23 -1 -46 -1 -69 -1v38l22 2c83 8 82 36 82 93v376c-143 -368 -72 -165 -204 -509h-49z" />
    <glyph glyph-name="afii10031" unicode="&#x41d;" horiz-adv-x="876" 
d="M28 630v38c23 0 46 0 69 -1c24 -1 49 -2 73 -2h80c24 0 49 1 73 2c23 1 46 1 69 1v-38l-22 -2c-83 -8 -82 -36 -82 -93v-171h300v171c0 57 1 85 -82 93l-22 2v38c23 0 46 0 69 -1c24 -1 49 -2 73 -2h80c24 0 49 1 73 2c23 1 46 1 69 1v-38l-22 -2c-83 -8 -82 -36 -82 -93
v-404c0 -57 -1 -85 82 -93l22 -2v-38c-23 0 -46 0 -69 1c-24 1 -49 2 -73 2h-80c-24 0 -49 -1 -73 -2c-23 -1 -46 -1 -69 -1v38l22 2c83 8 82 36 82 93v183h-300v-183c0 -57 -1 -85 82 -93l22 -2v-38c-23 0 -46 0 -69 1c-24 1 -49 2 -73 2h-80c-24 0 -49 -1 -73 -2
c-23 -1 -46 -1 -69 -1v38l22 2c83 8 82 36 82 93v404c0 57 1 85 -82 93z" />
    <glyph glyph-name="afii10032" unicode="&#x41e;" horiz-adv-x="852" 
d="M807 327c0 -216 -191 -340 -389 -340c-197 0 -373 139 -373 347c0 205 169 345 383 345c239 0 379 -166 379 -352zM629 335c0 266 -137 298 -205 298c-65 0 -201 -33 -201 -293c0 -268 130 -307 201 -307c106 0 205 63 205 302z" />
    <glyph glyph-name="afii10033" unicode="&#x41f;" horiz-adv-x="868" 
d="M288 131c0 -57 -1 -85 82 -93l22 -2v-38c-23 0 -46 0 -69 1c-24 1 -49 2 -73 2h-80c-24 0 -49 -1 -73 -2c-23 -1 -46 -1 -69 -1v38l22 2c83 8 82 36 82 93v404c0 57 1 85 -82 93l-22 2v38c23 0 46 0 69 -1c24 -1 49 -2 73 -2h528c24 0 49 1 73 2c23 1 46 1 69 1v-38
l-22 -2c-83 -8 -82 -36 -82 -93v-404c0 -57 -1 -85 82 -93l22 -2v-38c-23 0 -46 0 -69 1c-24 1 -49 2 -73 2h-80c-24 0 -49 -1 -73 -2c-23 -1 -46 -1 -69 -1v38l22 2c83 8 82 36 82 93v428c0 62 -23 56 -55 56h-182c-32 0 -55 6 -55 -56v-428z" />
    <glyph glyph-name="afii10034" unicode="&#x420;" horiz-adv-x="676" 
d="M288 306v-175c0 -47 -10 -84 92 -93l22 -2v-38c-25 0 -49 0 -74 1c-26 1 -52 2 -78 2h-80c-24 0 -49 -1 -73 -2c-23 -1 -46 -1 -69 -1v38l22 2c83 8 82 36 82 93v404c0 57 1 85 -82 93l-22 2v38c93 -1 129 -4 169 -3l182 3c197 3 254 -95 254 -174
c0 -54 -23 -188 -283 -188h-62zM288 586v-233c10 -1 20 -2 30 -2c57 0 146 20 146 138c0 40 -9 133 -133 133c-38 0 -43 -4 -43 -36z" />
    <glyph glyph-name="afii10035" unicode="&#x421;" horiz-adv-x="717" 
d="M675 232l-2 -109l2 -119h-44l-20 58c-70 -60 -148 -75 -214 -75c-205 0 -352 133 -352 341c0 205 156 351 359 351c51 0 119 -8 192 -63l15 58h44l9 -213h-45c-8 34 -21 63 -40 89c-43 61 -98 80 -152 80c-88 0 -204 -68 -204 -297c0 -254 144 -292 218 -292
c120 0 177 104 190 191h44z" />
    <glyph glyph-name="afii10036" unicode="&#x422;" horiz-adv-x="700" 
d="M61 477h-41c4 56 5 93 8 191l225 -3h194l225 3c3 -98 4 -135 8 -191h-41l-4 22c-13 70 -60 116 -175 116c-35 0 -32 -10 -32 -38v-446c0 -57 -1 -85 82 -93l22 -2v-38c-23 0 -46 0 -69 1c-24 1 -49 2 -73 2h-80c-24 0 -49 -1 -73 -2c-23 -1 -46 -1 -69 -1v38l22 2
c83 8 82 36 82 93v446c0 28 3 38 -32 38c-115 0 -162 -46 -175 -116z" />
    <glyph glyph-name="afii10037" unicode="&#x423;" horiz-adv-x="661" 
d="M323 630l-16 -2c-28 -3 -61 -4 -61 -38c0 -15 10 -41 18 -55l129 -227c109 212 131 252 131 280c0 20 -17 46 -75 42v38c29 -2 71 -4 104 -3l123 3v-38c-61 -5 -84 -56 -169 -221l-104 -203c-56 -109 -105 -222 -224 -222c-59 0 -87 34 -87 70c0 39 31 66 72 66
c22 0 36 -11 45 -19c13 -10 24 -23 37 -23c25 0 42 35 55 59l15 28l-221 390c-25 44 -58 68 -100 75v38c43 -2 111 -4 160 -3l168 3v-38z" />
    <glyph glyph-name="afii10038" unicode="&#x424;" horiz-adv-x="916" 
d="M640 26v-38c-23 0 -46 0 -69 1c-24 1 -49 2 -73 2h-40h-40c-24 0 -49 -1 -73 -2c-23 -1 -46 -1 -69 -1v38l22 2c38 3 82 8 82 68v23h-21c-66 0 -161 16 -216 50c-64 40 -98 107 -98 175s34 135 98 175c55 34 150 50 216 50h21v18c0 60 -44 65 -82 68l-22 2v38
c23 0 46 0 69 -1c24 -1 49 -2 73 -2h40h40c24 0 49 1 73 2c23 1 46 1 69 1v-38l-22 -2c-38 -3 -82 -8 -82 -68v-18h21c66 0 161 -16 216 -50c64 -40 98 -107 98 -175s-34 -135 -98 -175c-55 -34 -150 -50 -216 -50h-21v-23c0 -60 44 -65 82 -68zM536 533v-378
c88 7 169 71 169 189s-81 182 -169 189zM380 155v378c-88 -7 -169 -71 -169 -189s81 -182 169 -189z" />
    <glyph glyph-name="afii10039" unicode="&#x425;" horiz-adv-x="730" 
d="M431 373l199 -259c28 -36 49 -74 110 -78v-38c-34 1 -90 3 -126 3h-68h-56c-30 0 -75 -2 -104 -3v38l19 2c29 3 64 0 64 32c0 18 -18 40 -31 56l-105 132l-13 -14c-112 -121 -113 -157 -113 -167c0 -30 24 -35 57 -39l16 -2v-38c-33 1 -118 4 -158 3l-103 -3v38
c98 13 132 93 284 262l-185 245c-34 46 -48 73 -113 87v38c29 -1 74 -3 104 -3h56h67c36 0 92 2 125 3v-38l-15 -1c-24 -2 -60 2 -60 -28c0 -13 4 -35 42 -85l80 -105l23 28c75 92 93 127 93 151c0 37 -42 36 -58 38l-19 2v38c31 -2 84 -4 119 -3l140 3v-38
c-108 -13 -145 -109 -271 -257z" />
    <glyph glyph-name="afii10040" unicode="&#x426;" horiz-adv-x="868" 
d="M28 630v38c23 0 46 0 69 -1c24 -1 49 -2 73 -2h80c24 0 49 1 73 2c23 1 46 1 69 1v-38l-22 -2c-83 -8 -82 -36 -82 -93v-430c0 -62 23 -56 55 -56h182c32 0 55 -6 55 56v430c0 57 1 85 -82 93l-22 2v38c23 0 46 0 69 -1c24 -1 49 -2 73 -2h80c24 0 49 1 73 2
c23 1 46 1 69 1v-38l-22 -2c-83 -8 -82 -36 -82 -93v-445c0 -32 7 -41 38 -41h62v-240h-42c-30 174 -101 191 -193 191h-431c-26 0 -55 -1 -142 -2v38l22 2c83 8 82 36 82 93v404c0 57 1 85 -82 93z" />
    <glyph glyph-name="afii10041" unicode="&#x427;" horiz-adv-x="829" 
d="M427 -2v38l22 2c102 9 92 46 92 93v163c-63 -19 -132 -31 -193 -31c-223 0 -224 129 -224 188v84c0 57 1 85 -82 93l-22 2v38c23 0 46 0 69 -1c24 -1 49 -2 73 -2h80c23 0 45 1 68 2c21 1 43 1 64 1v-38l-22 -2c-51 -5 -72 -11 -72 -93v-79c0 -58 0 -135 139 -135
c56 0 104 14 122 20v194c0 58 -6 93 -72 93h-22v40c21 0 43 0 64 -1c23 -1 45 -2 68 -2h80c24 0 49 1 73 2c23 1 46 1 69 1v-38l-22 -2c-83 -8 -82 -36 -82 -93v-404c0 -57 -1 -85 82 -93l22 -2v-38c-23 0 -46 0 -69 1c-24 1 -49 2 -73 2h-80c-26 0 -52 -1 -78 -2
c-25 -1 -49 -1 -74 -1z" />
    <glyph glyph-name="afii10042" unicode="&#x428;" horiz-adv-x="1220" 
d="M833 630v38c22 0 45 0 67 -1c23 -1 47 -2 70 -2h80c24 0 49 1 73 2c23 1 46 1 69 1v-38l-22 -2c-83 -8 -82 -36 -82 -93v-404c0 -57 -1 -85 82 -93l22 -2v-38c-87 1 -116 2 -142 2h-880c-26 0 -55 -1 -142 -2v38l22 2c83 8 82 36 82 93v404c0 57 1 85 -82 93l-22 2v38
c23 0 46 0 69 -1c24 -1 49 -2 73 -2h80c23 0 47 1 70 2c22 1 45 1 67 1v-38l-22 -2c-55 -5 -77 -11 -77 -93v-430c0 -62 23 -56 55 -56h134c32 0 55 -6 55 56v430c0 82 -22 88 -77 93l-22 2v38c22 0 45 0 67 -1c23 -1 47 -2 70 -2h80c23 0 47 1 70 2c22 1 45 1 67 1v-38
l-22 -2c-55 -5 -77 -11 -77 -93v-430c0 -62 23 -56 55 -56h134c32 0 55 -6 55 56v430c0 82 -22 88 -77 93z" />
    <glyph glyph-name="afii10043" unicode="&#x429;" horiz-adv-x="1220" 
d="M833 630v38c22 0 45 0 67 -1c23 -1 47 -2 70 -2h80c24 0 49 1 73 2c23 1 46 1 69 1v-38l-22 -2c-83 -8 -82 -36 -82 -93v-445c0 -32 7 -41 38 -41h62v-240h-42c-30 174 -101 191 -193 191h-783c-26 0 -55 -1 -142 -2v38l22 2c83 8 82 36 82 93v404c0 57 1 85 -82 93
l-22 2v38c23 0 46 0 69 -1c24 -1 49 -2 73 -2h80c23 0 47 1 70 2c22 1 45 1 67 1v-38l-22 -2c-55 -5 -77 -11 -77 -93v-430c0 -62 23 -56 55 -56h134c32 0 55 -6 55 56v430c0 82 -22 88 -77 93l-22 2v38c22 0 45 0 67 -1c23 -1 47 -2 70 -2h80c23 0 47 1 70 2
c22 1 45 1 67 1v-38l-22 -2c-55 -5 -77 -11 -77 -93v-430c0 -62 23 -56 55 -56h134c32 0 55 -6 55 56v430c0 82 -22 88 -77 93z" />
    <glyph glyph-name="afii10044" unicode="&#x42a;" horiz-adv-x="823" 
d="M161 -2v38l14 1c59 4 82 16 82 93v447c0 22 3 38 -22 38h-19c-89 0 -162 -40 -170 -138h-41c4 56 5 93 8 191c86 -1 265 -3 322 -3c61 0 113 1 174 3v-38l-14 -1c-59 -4 -82 -16 -82 -93v-148c24 1 49 2 73 2c78 0 203 -3 266 -96c21 -30 31 -68 31 -105
c0 -28 -6 -55 -17 -80c-45 -98 -153 -111 -261 -111c-34 0 -68 1 -102 2c-23 1 -45 1 -68 1c-75 0 -141 -2 -174 -3zM413 342v-212c0 -36 9 -82 77 -82c36 0 119 18 119 146c0 140 -93 150 -143 150c-18 0 -35 0 -53 -2z" />
    <glyph glyph-name="afii10045" unicode="&#x42b;" horiz-adv-x="1033" 
d="M28 -2v38l14 1c59 4 82 16 82 93v406c0 77 -23 89 -82 93l-14 1v38c32 -1 87 -3 121 -3h53h53c34 0 89 2 121 3v-38l-14 -1c-59 -4 -82 -16 -82 -93v-148c22 1 44 2 66 2c94 0 304 -10 304 -201c0 -171 -161 -191 -259 -191c-56 0 -106 3 -189 3c-57 0 -117 -1 -174 -3z
M280 342v-212c0 -37 9 -82 77 -82c36 0 119 18 119 146c0 146 -104 150 -135 150c-20 0 -41 0 -61 -2zM657 -2v38l14 1c59 4 82 16 82 93v406c0 77 -23 89 -82 93l-14 1v38c32 -1 87 -3 121 -3h53h53c34 0 89 2 121 3v-38l-14 -1c-59 -4 -82 -16 -82 -93v-406
c0 -77 23 -89 82 -93l14 -1v-38c-26 1 -90 3 -121 3h-106c-31 0 -95 -2 -121 -3z" />
    <glyph glyph-name="afii10046" unicode="&#x42c;" horiz-adv-x="690" 
d="M28 -2v38l14 1c59 4 82 16 82 93v406c0 77 -23 89 -82 93l-14 1v38c32 -1 87 -3 121 -3h53h53c34 0 89 2 121 3v-38l-14 -1c-59 -4 -82 -16 -82 -93v-148c23 1 45 2 68 2c57 0 126 0 187 -28c96 -44 115 -122 115 -173c0 -168 -158 -191 -274 -191c-50 0 -101 3 -174 3
c-57 0 -117 -1 -174 -3zM280 342v-212c0 -21 3 -82 72 -82c51 0 124 25 124 146c0 36 -6 86 -43 120c-31 28 -61 29 -101 29c-17 0 -35 0 -52 -1z" />
    <glyph glyph-name="afii10047" unicode="&#x42d;" horiz-adv-x="717" 
d="M106 461h-45l9 213h44l15 -58c65 51 133 63 186 63c183 0 357 -125 357 -351c0 -239 -183 -341 -365 -341c-112 0 -209 33 -247 91c-10 15 -18 33 -18 52c0 49 36 74 72 74c50 0 73 -35 73 -69c0 -9 -2 -18 -5 -27c-2 -6 -4 -12 -4 -18c0 -29 45 -55 107 -55
c72 0 203 39 209 268v33c-25 -18 -71 -44 -103 -44c-18 0 -37 6 -54 13c-31 13 -59 35 -88 35s-67 -16 -87 -32l-28 30c70 70 120 81 152 81c19 0 38 -6 56 -14c26 -11 56 -31 88 -31c18 0 44 4 64 13c-2 78 -37 243 -196 243c-88 0 -168 -62 -192 -169z" />
    <glyph glyph-name="afii10048" unicode="&#x42e;" horiz-adv-x="1192" 
d="M288 364h115c22 199 185 315 372 315c234 0 372 -166 372 -352c0 -215 -186 -340 -382 -340c-207 0 -349 148 -362 327h-115v-183c0 -57 -1 -85 82 -93l22 -2v-38c-23 0 -46 0 -69 1c-24 1 -49 2 -73 2h-80c-24 0 -49 -1 -73 -2c-23 -1 -46 -1 -69 -1v38l22 2
c83 8 82 36 82 93v404c0 57 1 85 -82 93l-22 2v38c23 0 46 0 69 -1c24 -1 49 -2 73 -2h80c24 0 49 1 73 2c23 1 46 1 69 1v-38l-22 -2c-83 -8 -82 -36 -82 -93v-171zM969 335c0 265 -132 298 -198 298c-63 0 -194 -33 -194 -293c0 -268 124 -307 194 -307
c104 0 198 63 198 302z" />
    <glyph glyph-name="afii10049" unicode="&#x42f;" horiz-adv-x="776" 
d="M644 535v-404c0 -57 -1 -85 82 -93l22 -2v-38c-23 0 -46 0 -69 1c-24 1 -49 2 -73 2h-80c-24 0 -49 -1 -73 -2c-23 -1 -46 -1 -69 -1v38l22 2c83 8 82 36 82 93v172h-36c-16 0 -82 -1 -106 -70l-34 -98c-42 -122 -105 -148 -175 -148c-36 0 -114 4 -149 96l38 17
c10 -17 21 -30 36 -30c46 0 66 72 103 128c34 51 77 96 157 125v3c-154 22 -188 108 -188 166c0 61 39 139 145 165c40 10 103 11 128 11l173 -3c40 -1 87 2 168 3v-38l-22 -2c-83 -8 -82 -36 -82 -93zM488 348v246c0 25 -15 28 -25 28h-14c-100 0 -147 -64 -147 -139
c0 -86 63 -135 144 -135h42z" />
    <glyph glyph-name="afii10065" unicode="&#x430;" horiz-adv-x="498" 
d="M481 78l20 -28c-31 -45 -81 -60 -117 -60c-41 0 -81 19 -93 65c-18 -19 -38 -34 -63 -46c-9 -5 -19 -9 -29 -12c-17 -5 -34 -7 -52 -7c-47 0 -77 21 -95 48c-11 17 -17 38 -17 59c0 98 113 139 204 168c47 15 52 21 52 36v51c0 11 -2 39 -36 50c-8 2 -16 3 -24 3
c-44 0 -59 -31 -66 -54s-15 -59 -59 -59c-31 0 -59 22 -59 55c0 23 11 98 197 98c65 0 101 -14 119 -24c12 -6 24 -14 33 -24c21 -22 29 -51 29 -89v-221c0 -20 13 -25 23 -25c12 0 24 7 33 16zM291 139v108l-20 -9c-52 -23 -97 -51 -97 -111c0 -37 21 -58 50 -58
c30 0 67 22 67 70z" />
    <glyph glyph-name="afii10066" unicode="&#x431;" horiz-adv-x="578" 
d="M85 296h4c45 107 139 139 200 139c129 0 247 -93 247 -222c0 -138 -121 -223 -250 -223s-244 85 -244 287c0 298 173 348 280 368c110 21 154 18 159 61h37c-5 -126 -95 -157 -180 -175c-116 -25 -246 -28 -252 -207zM387 208c0 91 -7 187 -97 187
c-85 0 -99 -90 -99 -179c0 -91 11 -186 99 -186c84 0 97 89 97 178z" />
    <glyph glyph-name="afii10067" unicode="&#x432;" horiz-adv-x="568" 
d="M25 402v34c29 -1 106 -3 139 -3c43 0 87 3 130 3c73 0 114 -8 144 -23c46 -23 61 -57 61 -84c1 -38 -27 -84 -102 -96v-4c99 -5 136 -64 133 -113c-2 -34 -23 -67 -62 -89c-29 -16 -75 -29 -164 -29c-47 0 -95 3 -142 3c-33 0 -55 -1 -137 -3v34l17 1c32 2 53 12 53 76
v216c0 64 -21 74 -53 76zM229 368v-120h54c57 0 79 41 79 76c0 23 -9 72 -93 72h-11c-30 0 -29 -15 -29 -28zM229 208v-94c0 -32 0 -76 65 -76c68 0 84 51 84 80c0 32 -13 90 -89 90h-60z" />
    <glyph glyph-name="afii10068" unicode="&#x433;" horiz-adv-x="477" 
d="M25 402v34c26 -1 106 -3 137 -3l275 3l20 -156h-36l-9 24c-30 80 -80 89 -127 89h-24c-31 0 -32 -6 -32 -22v-262c0 -29 -2 -72 61 -76l17 -1v-34c-30 1 -111 3 -145 3c-33 0 -107 -2 -137 -3v34l17 1c32 2 53 12 53 76v216c0 64 -21 74 -53 76z" />
    <glyph glyph-name="afii10069" unicode="&#x434;" horiz-adv-x="564" 
d="M539 40v-190h-32l-10 38c-30 114 -105 112 -160 112h-128c-55 0 -130 2 -160 -112l-10 -38h-32v190h28c19 0 32 12 44 25c50 54 89 136 90 258c0 30 -5 75 -60 78l-17 1v34c51 -2 109 -3 156 -3h150c39 0 91 1 136 3v-34l-18 -2c-50 -6 -52 -28 -52 -65v-241
c0 -41 1 -54 30 -54h45zM330 65v300c0 18 2 28 -24 28h-57c-26 0 -29 -22 -30 -33c-9 -87 -3 -156 -57 -254c-12 -23 -18 -30 -28 -43c-3 -4 -6 -9 -6 -14c0 -9 12 -9 20 -9h158c7 0 24 0 24 25z" />
    <glyph glyph-name="afii10070" unicode="&#x435;" horiz-adv-x="526" 
d="M447 114l33 -26c-49 -71 -124 -98 -202 -98c-128 0 -236 88 -236 222c0 138 107 233 241 233c139 0 203 -97 203 -182c0 -19 -3 -26 -25 -26h-270v-22c0 -126 71 -166 133 -166c21 0 72 3 123 65zM192 280h126c18 0 38 -2 38 25c0 47 -29 100 -76 100
c-46 0 -87 -44 -88 -125z" />
    <glyph glyph-name="afii10072" unicode="&#x436;" horiz-adv-x="832" 
d="M547 32v-34c-43 2 -93 3 -131 3s-88 -1 -131 -3v34l15 1c50 3 49 48 49 76v100h-25c-32 0 -43 -23 -55 -50l-35 -80c-16 -36 -37 -89 -113 -89c-72 0 -109 37 -126 81l36 15c10 -21 21 -27 31 -27c46 0 77 144 176 172l7 2v3c-13 10 -24 21 -35 38c-20 30 -29 89 -59 89
c-10 0 -18 -7 -27 -13c-6 -4 -15 -8 -28 -8c-30 0 -50 22 -50 53c0 26 23 50 67 50c59 0 87 -42 103 -73c22 -46 38 -123 105 -123h28v76c0 28 1 73 -49 76l-15 1v34c43 -2 93 -3 131 -3s88 1 131 3v-34l-15 -1c-50 -3 -49 -48 -49 -76v-76h28c67 0 83 77 105 123
c16 31 44 73 103 73c44 0 67 -24 67 -50c0 -31 -20 -53 -50 -53c-13 0 -22 4 -28 8c-9 6 -17 13 -27 13c-30 0 -39 -59 -59 -89c-11 -17 -22 -28 -35 -38v-3l7 -2c99 -28 130 -172 176 -172c10 0 21 6 31 27l36 -15c-17 -44 -54 -81 -126 -81c-76 0 -97 53 -113 89l-35 80
c-12 27 -23 50 -55 50h-25v-100c0 -28 -1 -73 49 -76z" />
    <glyph glyph-name="afii10073" unicode="&#x437;" horiz-adv-x="484" 
d="M173 209v40h35c46 0 78 27 78 76c0 60 -41 80 -77 80c-44 0 -91 -32 -101 -102l-1 -7h-34v149h23l21 -26c43 20 86 26 122 26c142 0 181 -70 181 -114c0 -50 -52 -90 -110 -97v-4c51 -3 136 -26 136 -107c0 -62 -58 -133 -223 -133c-122 0 -185 52 -185 106
c0 29 20 53 52 53c36 0 55 -25 55 -46c0 -7 -2 -13 -5 -19c-2 -5 -5 -10 -5 -16c0 -21 33 -38 74 -38c57 0 91 37 91 91c0 87 -75 88 -84 88h-43z" />
    <glyph glyph-name="afii10074" unicode="&#x438;" horiz-adv-x="628" 
d="M25 402v34c29 -1 105 -3 137 -3s103 2 132 3v-34l-17 -1c-23 -1 -48 -6 -48 -76v-182l170 211l-2 10c-4 18 -19 35 -46 37l-17 1v34c29 -1 100 -3 132 -3s108 2 137 3v-34l-17 -1c-32 -2 -53 -12 -53 -76v-216c0 -64 21 -74 53 -76l17 -1v-34c-29 1 -105 3 -137 3
s-103 -2 -132 -3v34l17 1c23 1 48 6 48 76v183l-170 -211v-5c0 -20 16 -41 48 -43l17 -1v-34c-29 1 -100 3 -132 3s-108 -2 -137 -3v34l17 1c32 2 53 12 53 76v216c0 64 -21 74 -53 76z" />
    <glyph glyph-name="afii10075" unicode="&#x439;" horiz-adv-x="628" 
d="M25 402v34c29 -1 105 -3 137 -3s103 2 132 3v-34l-17 -1c-23 -1 -48 -6 -48 -76v-182l170 211l-2 10c-4 18 -19 35 -46 37l-17 1v34c29 -1 100 -3 132 -3s108 2 137 3v-34l-17 -1c-32 -2 -53 -12 -53 -76v-216c0 -64 21 -74 53 -76l17 -1v-34c-29 1 -105 3 -137 3
s-103 -2 -132 -3v34l17 1c23 1 48 6 48 76v183l-170 -211v-5c0 -20 16 -41 48 -43l17 -1v-34c-29 1 -100 3 -132 3s-108 -2 -137 -3v34l17 1c32 2 53 12 53 76v216c0 64 -21 74 -53 76zM314 500c-110 0 -169 58 -169 118c0 9 3 52 53 52c35 0 51 -19 51 -41
c0 -14 -7 -23 -11 -28c-4 -6 -9 -12 -9 -22c0 -22 26 -45 85 -45s85 23 85 45c0 10 -5 16 -9 22c-4 5 -11 14 -11 28c0 22 16 41 51 41c50 0 53 -43 53 -52c0 -60 -59 -118 -169 -118z" />
    <glyph glyph-name="afii10076" unicode="&#x43a;" horiz-adv-x="582" 
d="M223 209v-100c0 -28 -1 -73 49 -76l15 -1v-34c-43 2 -93 3 -131 3s-88 -1 -131 -3v34l15 1c50 3 49 48 49 76v216c0 28 1 73 -49 76l-15 1v34c43 -2 93 -3 131 -3s88 1 131 3v-34l-15 -1c-50 -3 -49 -48 -49 -76v-76h28c65 0 82 67 110 123c16 31 45 73 106 73
c48 0 67 -28 67 -54c0 -27 -19 -49 -50 -49s-35 21 -57 21c-41 0 -43 -86 -105 -127v-3l8 -2c81 -20 107 -97 147 -148c9 -11 21 -24 40 -24c16 0 26 9 34 27l36 -15c-29 -73 -87 -81 -126 -81c-38 0 -86 8 -121 89l-35 80c-12 27 -24 50 -57 50h-25z" />
    <glyph glyph-name="afii10077" unicode="&#x43b;" horiz-adv-x="573" 
d="M548 436v-34l-18 -2c-50 -6 -52 -28 -52 -65v-236c0 -37 2 -59 52 -65l18 -2v-34c-40 1 -103 3 -137 3s-97 -2 -137 -3v34l18 2c50 6 52 28 52 65v266c0 18 2 28 -24 28h-54c-26 0 -29 -22 -30 -33c-3 -30 -4 -62 -11 -116c-12 -85 -37 -214 -124 -247
c-12 -5 -26 -7 -39 -7c-36 0 -67 20 -67 51c0 32 24 49 48 49c27 0 36 -18 46 -24c3 -2 7 -3 10 -3c11 0 21 9 28 19c6 8 42 59 54 203c5 65 2 112 -58 116l-17 1v34c51 -2 109 -3 156 -3h150c39 0 91 1 136 3z" />
    <glyph glyph-name="afii10078" unicode="&#x43c;" horiz-adv-x="688" 
d="M284 -2l-145 293v-182c0 -72 28 -74 53 -76l12 -1v-34c-23 1 -56 3 -82 3c-29 0 -71 -2 -97 -3v34l17 1c28 2 53 8 53 103v192c0 24 -3 70 -51 73l-16 1v34c13 0 26 0 39 -1s25 -2 38 -2l95 3l141 -282l138 282l99 -3c20 -1 41 2 85 3v-34l-17 -1c-32 -2 -53 -12 -53 -76
v-216c0 -64 21 -74 53 -76l17 -1v-34c-29 1 -105 3 -137 3s-103 -2 -132 -3v34l12 1c25 2 53 4 53 76v182l-145 -293h-30z" />
    <glyph glyph-name="afii10079" unicode="&#x43d;" horiz-adv-x="628" 
d="M25 402v34c29 -1 105 -3 137 -3s103 2 132 3v-34l-17 -1c-23 -1 -48 -6 -48 -76v-76h170v76c0 70 -25 75 -48 76l-17 1v34c29 -1 100 -3 132 -3s108 2 137 3v-34l-17 -1c-32 -2 -53 -12 -53 -76v-216c0 -64 21 -74 53 -76l17 -1v-34c-29 1 -105 3 -137 3s-103 -2 -132 -3
v34l17 1c23 1 48 6 48 76v100h-170v-100c0 -70 25 -75 48 -76l17 -1v-34c-29 1 -100 3 -132 3s-108 -2 -137 -3v34l17 1c32 2 53 12 53 76v216c0 64 -21 74 -53 76z" />
    <glyph glyph-name="afii10080" unicode="&#x43e;" horiz-adv-x="578" 
d="M536 218c0 -140 -121 -228 -250 -228c-157 0 -244 123 -244 230c0 134 120 225 247 225c129 0 247 -91 247 -227zM387 208c0 93 -7 197 -97 197c-86 0 -99 -95 -99 -184c0 -93 11 -191 99 -191c85 0 97 90 97 178z" />
    <glyph glyph-name="afii10081" unicode="&#x43f;" horiz-adv-x="614" 
d="M25 32l17 1c32 2 53 12 53 76v216c0 64 -21 74 -53 76l-17 1v34c29 -1 105 -3 137 -3h290c32 0 108 2 137 3v-34l-17 -1c-32 -2 -53 -12 -53 -76v-216c0 -64 21 -74 53 -76l17 -1v-34c-28 1 -105 3 -137 3c-31 0 -99 -2 -127 -3v34l12 1c23 2 48 5 48 76v246
c0 31 -5 38 -38 38h-80c-33 0 -38 -7 -38 -38v-246c0 -71 25 -74 48 -76l12 -1v-34c-28 1 -96 3 -127 3c-32 0 -109 -2 -137 -3v34z" />
    <glyph glyph-name="afii10082" unicode="&#x440;" horiz-adv-x="621" 
d="M25 -270v34l17 1c33 2 53 12 53 77v437c0 43 -3 98 -70 94v34c87 8 151 25 196 41c5 -29 5 -47 8 -87c33 51 87 83 151 83c121 0 199 -110 199 -224c0 -115 -80 -231 -206 -231c-54 0 -106 23 -144 59v-207c0 -29 -3 -72 63 -76l17 -1v-34c-30 1 -112 3 -147 3
c-33 0 -106 -2 -137 -3zM229 260v-80c0 -97 41 -131 94 -131c45 0 113 26 113 164c0 137 -58 166 -104 166c-51 0 -103 -41 -103 -119z" />
    <glyph glyph-name="afii10083" unicode="&#x441;" horiz-adv-x="506" 
d="M433 116l31 -27c-54 -81 -137 -99 -195 -99c-43 0 -86 9 -123 30c-57 32 -104 96 -104 190c0 39 10 77 28 111c59 110 164 124 223 124c18 0 37 -1 55 -4c29 -5 59 -16 81 -35c21 -18 29 -40 29 -57c0 -23 -15 -54 -53 -54c-44 0 -58 36 -67 57c-10 25 -21 53 -57 53
c-18 0 -37 -8 -50 -20c-33 -31 -40 -103 -40 -158c0 -24 2 -48 7 -73c6 -30 18 -61 41 -81c17 -15 44 -26 72 -26c47 0 93 32 122 69z" />
    <glyph glyph-name="afii10084" unicode="&#x442;" horiz-adv-x="530" 
d="M53 283h-35l11 153l178 -3h116l178 3l11 -153h-35l-7 18c-12 30 -39 92 -98 92h-15c-24 0 -25 -19 -25 -34v-250c0 -64 21 -74 53 -76l17 -1v-34c-29 1 -105 3 -137 3s-108 -2 -137 -3v34l17 1c32 2 53 12 53 76v250c0 15 -1 34 -25 34h-15c-59 0 -86 -62 -98 -92z" />
    <glyph glyph-name="afii10085" unicode="&#x443;" horiz-adv-x="492" 
d="M223 -11l-150 342c-14 32 -25 65 -73 71v34c63 -1 103 -3 137 -3c22 0 40 1 124 3v-34h-11c-36 0 -45 -12 -45 -29c0 -16 8 -35 20 -65l69 -169l61 142c15 35 24 57 24 82c0 37 -38 40 -56 39v34c63 -2 75 -3 93 -3c14 0 28 1 81 3v-34c-61 -9 -72 -70 -108 -149
l-182 -399c-25 -54 -53 -131 -124 -131c-33 0 -58 21 -58 54c0 35 26 49 44 55c49 16 85 -1 144 134z" />
    <glyph glyph-name="afii10086" unicode="&#x444;" horiz-adv-x="830" 
d="M284 623v34c76 6 141 18 193 30h5v-289c33 31 73 47 114 47c91 0 192 -79 192 -229c0 -149 -102 -226 -192 -226c-55 0 -93 26 -114 44v-192c0 -64 21 -74 53 -76l17 -1v-34c-29 1 -105 3 -137 3s-108 -2 -137 -3v34l17 1c32 2 53 12 53 76v192c-21 -18 -59 -44 -114 -44
c-90 0 -192 77 -192 226c0 150 101 229 192 229c41 0 81 -16 114 -47v133c0 50 0 85 -64 92zM482 351v-270c16 -15 41 -30 63 -30s100 7 100 165c0 159 -78 168 -100 168s-47 -16 -63 -33zM348 81v270c-16 17 -41 33 -63 33s-100 -9 -100 -168c0 -158 78 -165 100 -165
s47 15 63 30z" />
    <glyph glyph-name="afii10087" unicode="&#x445;" horiz-adv-x="557" 
d="M329 251l144 -168c26 -30 42 -46 79 -51v-34c-46 2 -102 3 -139 3c-35 0 -98 -2 -140 -3v34h13c14 0 32 2 32 20c0 5 -3 22 -62 89l-15 17l-14 -15c-39 -41 -63 -66 -63 -84c0 -12 15 -30 51 -27v-34c-20 1 -41 1 -61 2c-9 1 -18 1 -27 1l-111 -3v34c80 24 95 46 129 82
l70 74l-139 164c-25 30 -40 45 -69 50v34c63 -1 103 -3 137 -3c32 0 72 2 132 3v-34h-13c-11 0 -30 -7 -30 -22c0 -19 37 -61 56 -81l17 -18l9 9c19 19 62 64 62 85s-21 27 -31 27h-17v34c45 -1 75 -3 94 -3c23 0 52 2 98 3v-34c-52 -9 -77 -36 -116 -75z" />
    <glyph glyph-name="afii10088" unicode="&#x446;" horiz-adv-x="618" 
d="M523 325v-231c0 -41 1 -54 30 -54h45v-190h-32l-10 38c-30 114 -105 112 -160 112h-234c-25 0 -56 -1 -137 -2v34l17 1c32 2 53 12 53 76v216c0 64 -21 74 -53 76l-17 1v34c28 -1 105 -3 137 -3c31 0 99 2 127 3v-34l-17 -1c-20 -1 -43 -6 -43 -76v-248
c0 -30 5 -37 38 -37h84c33 0 38 7 38 37v248c0 70 -23 75 -43 76l-17 1v34c28 -1 96 -3 127 -3c32 0 109 2 137 3v-34l-17 -1c-32 -2 -53 -12 -53 -76z" />
    <glyph glyph-name="afii10089" unicode="&#x447;" horiz-adv-x="604" 
d="M18 402v34c29 -1 105 -3 137 -3c31 0 101 2 130 3v-34l-17 -1c-30 -2 -46 -13 -46 -76v-59c0 -60 51 -62 65 -62c23 0 60 7 88 16v105c0 63 -16 74 -46 76l-17 1v34c29 -1 99 -3 130 -3c32 0 108 2 137 3v-34l-17 -1c-32 -2 -53 -12 -53 -76v-216c0 -64 21 -74 53 -76
l17 -1v-34c-31 1 -104 3 -137 3c-35 0 -117 -2 -147 -3v34l17 1c66 4 63 47 63 76v71c-53 -13 -92 -19 -132 -19c-141 0 -155 64 -155 109v55c0 62 -16 75 -38 76z" />
    <glyph glyph-name="afii10090" unicode="&#x448;" horiz-adv-x="882" 
d="M594 402v34c39 -2 85 -3 126 -3c42 0 99 2 137 3v-34l-17 -1c-32 -2 -53 -12 -53 -76v-216c0 -64 21 -74 53 -76l17 -1v-34c-85 1 -107 2 -132 2h-563c-25 0 -54 -1 -137 -2v34l17 1c32 2 53 12 53 76v216c0 64 -21 74 -53 76l-17 1v34c38 -1 95 -3 137 -3
c41 0 87 1 126 3v-34l-10 -1c-30 -3 -49 -13 -49 -76v-248c0 -30 5 -37 38 -37h69c33 0 38 7 38 37v248c0 64 -19 72 -49 76l-7 1v34c39 -2 83 -3 123 -3s84 1 123 3v-34l-7 -1c-30 -4 -49 -12 -49 -76v-248c0 -30 5 -37 38 -37h69c33 0 38 7 38 37v248c0 63 -19 73 -49 76z
" />
    <glyph glyph-name="afii10091" unicode="&#x449;" horiz-adv-x="882" 
d="M594 402v34c39 -2 85 -3 126 -3c42 0 99 2 137 3v-34l-17 -1c-32 -2 -53 -12 -53 -76v-230c0 -41 1 -54 30 -54h45v-191h-32l-10 38c-30 114 -105 112 -160 112h-498c-25 0 -54 -1 -137 -2v34l17 1c32 2 53 12 53 76v216c0 64 -21 74 -53 76l-17 1v34
c36 -1 101 -3 137 -3c25 0 91 2 126 3v-34l-10 -1c-30 -3 -49 -13 -49 -76v-248c0 -30 5 -37 38 -37h69c33 0 38 7 38 37v248c0 64 -19 72 -49 76l-7 1v34c39 -2 83 -3 123 -3s84 1 123 3v-34l-7 -1c-30 -4 -49 -12 -49 -76v-248c0 -30 5 -37 38 -37h69c33 0 38 7 38 37v248
c0 63 -19 73 -49 76z" />
    <glyph glyph-name="afii10092" unicode="&#x44a;" horiz-adv-x="661" 
d="M122 -2v34l17 1c31 2 53 10 53 76v252c0 5 0 10 -1 15s-4 19 -22 19h-13c-49 0 -80 -17 -106 -89l-5 -14h-35l11 144c31 -1 174 -3 238 -3c37 0 99 2 137 3v-34l-17 -1c-32 -2 -53 -12 -53 -76v-63c25 3 54 5 79 5c88 0 135 -16 162 -34c37 -25 56 -63 56 -100
c0 -33 -13 -63 -34 -85c-47 -49 -120 -50 -179 -50c-22 0 -43 0 -65 1c-29 1 -57 2 -86 2c-33 0 -108 -2 -137 -3zM326 223v-107c0 -52 12 -78 65 -78c62 0 83 49 83 92c0 40 -17 97 -104 97c-15 0 -29 -1 -44 -4z" />
    <glyph glyph-name="afii10093" unicode="&#x44b;" horiz-adv-x="830" 
d="M25 -2v34l17 1c31 2 53 10 53 76v216c0 64 -21 74 -53 76l-17 1v34c29 -1 105 -3 137 -3s108 2 137 3v-34l-17 -1c-32 -2 -53 -12 -53 -76v-63c25 3 54 5 79 5c88 0 135 -16 162 -34c42 -28 56 -69 56 -102c0 -53 -34 -98 -95 -119c-67 -23 -165 -11 -269 -11
c-32 0 -109 -2 -137 -3zM229 223v-107c0 -52 12 -78 65 -78c66 0 83 54 83 90c0 42 -17 99 -104 99c-15 0 -29 -1 -44 -4zM735 325v-216c0 -64 21 -74 53 -76l17 -1v-34c-29 1 -105 3 -137 3s-105 -2 -134 -3v34l14 1c25 2 53 4 53 76v216c0 64 -21 74 -53 76l-17 1v34
c29 -1 105 -3 137 -3s108 2 137 3v-34l-17 -1c-32 -2 -53 -12 -53 -76z" />
    <glyph glyph-name="afii10094" unicode="&#x44c;" horiz-adv-x="564" 
d="M25 -2v34l17 1c31 2 53 10 53 76v216c0 64 -21 74 -53 76l-17 1v34c29 -1 105 -3 137 -3s108 2 137 3v-34l-17 -1c-32 -2 -53 -12 -53 -76v-63c25 3 54 5 79 5c32 0 65 -1 97 -8c96 -21 121 -85 121 -130c0 -48 -31 -95 -92 -117c-64 -23 -157 -11 -272 -11
c-33 0 -108 -2 -137 -3zM229 223v-107c0 -54 13 -78 62 -78c70 0 86 56 86 92c0 40 -17 97 -104 97c-15 0 -29 -1 -44 -4z" />
    <glyph glyph-name="afii10095" unicode="&#x44d;" horiz-adv-x="505" 
d="M100 304h-39v141h23l21 -26c36 17 76 26 118 26c138 0 240 -97 240 -224c0 -40 -10 -99 -60 -154c-53 -58 -118 -77 -190 -77c-138 0 -175 67 -175 104c0 31 21 56 55 56c19 0 31 -7 39 -15c9 -9 12 -22 12 -34c0 -6 -3 -12 -6 -18c-2 -5 -5 -9 -5 -14c0 -4 1 -8 3 -12
c10 -18 42 -27 67 -27c27 0 71 12 94 69c13 32 18 86 17 120c-14 -13 -40 -31 -58 -31c-9 0 -19 2 -28 6c-22 9 -41 27 -61 27c-24 0 -47 -18 -54 -24l-18 19c12 15 50 60 89 60c12 0 23 -3 34 -8c19 -9 38 -26 55 -26c10 0 29 8 41 15c1 87 -42 148 -109 148
c-52 0 -96 -38 -105 -101z" />
    <glyph glyph-name="afii10096" unicode="&#x44e;" horiz-adv-x="831" 
d="M229 248h69c21 120 127 197 244 197c129 0 247 -91 247 -227c0 -140 -121 -228 -250 -228c-111 0 -231 75 -241 218h-69v-99c0 -64 21 -74 53 -76l17 -1v-34c-29 1 -105 3 -137 3s-108 -2 -137 -3v34l17 1c32 2 53 12 53 76v216c0 64 -21 74 -53 76l-17 1v34
c29 -1 105 -3 137 -3s108 2 137 3v-34l-17 -1c-32 -2 -53 -12 -53 -76v-77zM640 208c0 93 -7 197 -97 197c-86 0 -99 -95 -99 -184c0 -93 11 -191 99 -191c85 0 97 90 97 178z" />
    <glyph glyph-name="afii10097" unicode="&#x44f;" horiz-adv-x="588" 
d="M563 436v-34l-17 -1c-32 -2 -53 -12 -53 -76v-216c0 -64 21 -74 53 -76l17 -1v-34c-29 1 -105 3 -137 3s-108 -2 -137 -3v34l17 1c32 2 53 12 53 76v89h-18c-18 0 -41 -4 -57 -39l-35 -80c-21 -48 -47 -89 -130 -89c-80 0 -111 49 -123 81l36 15c7 -15 16 -27 31 -27
c28 0 46 34 64 60c43 63 67 78 100 86l8 2v5h-9c-118 0 -144 67 -144 106c0 36 20 73 61 95c32 17 77 23 139 23c48 0 96 -3 144 -3c49 0 18 2 137 3zM359 238v142c0 5 0 16 -17 16h-17c-75 0 -98 -44 -98 -78c0 -51 45 -80 95 -80h37z" />
    <glyph glyph-name="Euro" unicode="&#x20ac;" 
d="M491 539h-23c-10 63 -50 90 -107 90c-90 0 -125 -84 -136 -225h217l-18 -45h-200c0 -9 -1 -20 -1 -29c0 -10 0 -23 1 -31h175l-18 -45h-156c7 -140 55 -217 137 -217c50 0 95 25 105 89h24l-6 -88c-26 -29 -68 -50 -157 -50c-153 0 -228 93 -245 266h-66l18 45h42
c0 9 -1 24 -1 32s1 20 1 28h-60l18 45h45c19 175 86 275 248 275c94 0 135 -25 157 -48z" />
    </font>
</defs>
</svg>
